<svg viewBox="0 0 330 200" xmlns="http://www.w3.org/2000/svg"><g><g><g><g><g><line x1="61.91500186920166" y1="176.55199909210205" x2="56.91500186920166" y2="176.55199909210205" style="visibility: inherit;" fill="rgb(0, 0, 0)" stroke="rgb(204, 204, 204)" stroke-width="1px"></line><line x1="61.91500186920166" y1="151.33028493608745" x2="56.91500186920166" y2="151.33028493608745" style="visibility: inherit;" fill="rgb(0, 0, 0)" stroke="rgb(204, 204, 204)" stroke-width="1px"></line><line x1="61.91500186920166" y1="126.10857078007288" x2="56.91500186920166" y2="126.10857078007288" style="visibility: inherit;" fill="rgb(0, 0, 0)" stroke="rgb(204, 204, 204)" stroke-width="1px"></line><line x1="61.91500186920166" y1="100.88685662405832" x2="56.91500186920166" y2="100.88685662405832" style="visibility: inherit;" fill="rgb(0, 0, 0)" stroke="rgb(204, 204, 204)" stroke-width="1px"></line><line x1="61.91500186920166" y1="75.66514246804373" x2="56.91500186920166" y2="75.66514246804373" style="visibility: inherit;" fill="rgb(0, 0, 0)" stroke="rgb(204, 204, 204)" stroke-width="1px"></line><line x1="61.91500186920166" y1="50.443428312029155" x2="56.91500186920166" y2="50.443428312029155" style="visibility: inherit;" fill="rgb(0, 0, 0)" stroke="rgb(204, 204, 204)" stroke-width="1px"></line><line x1="61.91500186920166" y1="25.221714156014606" x2="56.91500186920166" y2="25.221714156014606" style="visibility: inherit;" fill="rgb(0, 0, 0)" stroke="rgb(204, 204, 204)" stroke-width="1px"></line><line x1="61.91500186920166" y1="0" x2="56.91500186920166" y2="0" style="visibility: inherit;" fill="rgb(0, 0, 0)" stroke="rgb(204, 204, 204)" stroke-width="1px"></line></g><g transform="translate(51.91500186920166, 0)"><text style="text-anchor: end; visibility: hidden; font-family: Roboto, sans-serif; font-size: 12px; font-weight: 200;" x="0" y="176.55199909210205" dx="0em" dy="0.3em" fill="rgb(33, 33, 33)" stroke="none" stroke-width="1px">0.015</text><text style="text-anchor: end; visibility: inherit; font-family: Roboto, sans-serif; font-size: 12px; font-weight: 200;" x="0" y="151.33028493608745" dx="0em" dy="0.3em" fill="rgb(33, 33, 33)" stroke="none" stroke-width="1px">0.02</text><text style="text-anchor: end; visibility: inherit; font-family: Roboto, sans-serif; font-size: 12px; font-weight: 200;" x="0" y="126.10857078007288" dx="0em" dy="0.3em" fill="rgb(33, 33, 33)" stroke="none" stroke-width="1px">0.025</text><text style="text-anchor: end; visibility: inherit; font-family: Roboto, sans-serif; font-size: 12px; font-weight: 200;" x="0" y="100.88685662405832" dx="0em" dy="0.3em" fill="rgb(33, 33, 33)" stroke="none" stroke-width="1px">0.03</text><text style="text-anchor: end; visibility: inherit; font-family: Roboto, sans-serif; font-size: 12px; font-weight: 200;" x="0" y="75.66514246804373" dx="0em" dy="0.3em" fill="rgb(33, 33, 33)" stroke="none" stroke-width="1px">0.035</text><text style="text-anchor: end; visibility: inherit; font-family: Roboto, sans-serif; font-size: 12px; font-weight: 200;" x="0" y="50.443428312029155" dx="0em" dy="0.3em" fill="rgb(33, 33, 33)" stroke="none" stroke-width="1px">0.04</text><text style="text-anchor: end; visibility: inherit; font-family: Roboto, sans-serif; font-size: 12px; font-weight: 200;" x="0" y="25.221714156014606" dx="0em" dy="0.3em" fill="rgb(33, 33, 33)" stroke="none" stroke-width="1px">0.045</text><text style="text-anchor: end; visibility: hidden; font-family: Roboto, sans-serif; font-size: 12px; font-weight: 200;" x="0" y="0" dx="0em" dy="0.3em" fill="rgb(33, 33, 33)" stroke="none" stroke-width="1px">0.05</text></g><line x1="61.91500186920166" y1="0" x2="61.91500186920166" y2="176.55199909210205" fill="rgb(0, 0, 0)" stroke="rgb(204, 204, 204)" stroke-width="1px"></line></g></g><g transform="translate(61, 0)" clip-path="url(#clip_0)"><clipPath id="clip_0"><rect width="268" height="176"></rect></clipPath><g><g><g><line x1="0" y1="0" x2="0" y2="176.55199909210205" fill="rgb(0, 0, 0)" stroke="rgb(66, 66, 66)" stroke-width="1px" opacity="0.25"></line><line x1="33.51062476634979" y1="0" x2="33.51062476634979" y2="176.55199909210205" fill="rgb(0, 0, 0)" stroke="rgb(66, 66, 66)" stroke-width="1px" opacity="0.25"></line><line x1="67.02124953269958" y1="0" x2="67.02124953269958" y2="176.55199909210205" fill="rgb(0, 0, 0)" stroke="rgb(66, 66, 66)" stroke-width="1px" opacity="0.25"></line><line x1="100.53187429904938" y1="0" x2="100.53187429904938" y2="176.55199909210205" fill="rgb(0, 0, 0)" stroke="rgb(66, 66, 66)" stroke-width="1px" opacity="0.25"></line><line x1="134.04249906539917" y1="0" x2="134.04249906539917" y2="176.55199909210205" fill="rgb(0, 0, 0)" stroke="rgb(66, 66, 66)" stroke-width="1px" opacity="0.25"></line><line x1="167.55312383174896" y1="0" x2="167.55312383174896" y2="176.55199909210205" fill="rgb(0, 0, 0)" stroke="rgb(66, 66, 66)" stroke-width="1px" opacity="0.25"></line><line x1="201.06374859809875" y1="0" x2="201.06374859809875" y2="176.55199909210205" fill="rgb(0, 0, 0)" stroke="rgb(66, 66, 66)" stroke-width="1px" opacity="0.25"></line><line x1="234.57437336444855" y1="0" x2="234.57437336444855" y2="176.55199909210205" fill="rgb(0, 0, 0)" stroke="rgb(66, 66, 66)" stroke-width="1px" opacity="0.25"></line><line x1="268.08499813079834" y1="0" x2="268.08499813079834" y2="176.55199909210205" fill="rgb(0, 0, 0)" stroke="rgb(66, 66, 66)" stroke-width="1px" opacity="0.25"></line></g><g><line x1="0" y1="176.55199909210205" x2="268.08499813079834" y2="176.55199909210205" fill="rgb(0, 0, 0)" stroke="rgb(66, 66, 66)" stroke-width="1px" opacity="0.25"></line><line x1="0" y1="151.33028493608745" x2="268.08499813079834" y2="151.33028493608745" fill="rgb(0, 0, 0)" stroke="rgb(66, 66, 66)" stroke-width="1px" opacity="0.25"></line><line x1="0" y1="126.10857078007288" x2="268.08499813079834" y2="126.10857078007288" fill="rgb(0, 0, 0)" stroke="rgb(66, 66, 66)" stroke-width="1px" opacity="0.25"></line><line x1="0" y1="100.88685662405832" x2="268.08499813079834" y2="100.88685662405832" fill="rgb(0, 0, 0)" stroke="rgb(66, 66, 66)" stroke-width="1px" opacity="0.25"></line><line x1="0" y1="75.66514246804373" x2="268.08499813079834" y2="75.66514246804373" fill="rgb(0, 0, 0)" stroke="rgb(66, 66, 66)" stroke-width="1px" opacity="0.25"></line><line x1="0" y1="50.443428312029155" x2="268.08499813079834" y2="50.443428312029155" fill="rgb(0, 0, 0)" stroke="rgb(66, 66, 66)" stroke-width="1px" opacity="0.25"></line><line x1="0" y1="25.221714156014606" x2="268.08499813079834" y2="25.221714156014606" fill="rgb(0, 0, 0)" stroke="rgb(66, 66, 66)" stroke-width="1px" opacity="0.25"></line><line x1="0" y1="0" x2="268.08499813079834" y2="0" fill="rgb(0, 0, 0)" stroke="rgb(66, 66, 66)" stroke-width="1px" opacity="0.25"></line></g></g></g><g><g><line x1="0" y1="252.21714156014576" x2="268.08499813079834" y2="252.21714156014576" fill="rgb(0, 0, 0)" stroke="rgb(153, 153, 153)" stroke-width="1.5px"></line></g></g><g><g><line x1="33.51062476634979" y1="0" x2="33.51062476634979" y2="176.55199909210205" fill="rgb(0, 0, 0)" stroke="rgb(153, 153, 153)" stroke-width="1.5px"></line></g></g><g><g><g><g><g><path style="fill: none;" stroke="rgb(204, 51, 17)" stroke-width="2px" d="M34.438869072377685,-57.021646769531166L34.473049909639364,21.291809565197703L34.67478387073278,-45.79700376931837L34.76861362007856,40.58802764250961L35.05680499306917,50.0516979569879L35.11176241768598,47.881863633085025L35.1767730297327,69.32308019048479L35.68613452618123,60.364276082609834L35.72567706340551,104.63779487265255L36.403932108676436,83.15494731824447L36.521219295358655,1.7785362423246216L36.842251080620294,20.123354449099967L36.95149571735859,50.959983083600605L37.092910553872585,84.77102173860474L37.34625087710619,108.21847772143563L37.469569976246355,130.21643460398764L37.52519761335849,35.152151050913616L37.66594223737717,46.99429999361295L38.00037827254534,52.767831134058184L38.00842082248926,51.28059643818897L38.104261209321024,50.373547132365154L38.17932500879765,-52.00694872887043L38.51242061897516,-7.2185322971939625L38.73694180490971,27.57001767524084L38.76039924224615,53.383888558406625L38.91655875365734,53.891632791612835L38.992962978124616,79.97065488107208L39.020441690433024,121.48148524140281L39.20609055163861,111.56704104016623L39.498973412096504,85.96983420372707L39.716792473077774,94.57362297944246L39.85619667210579,102.08021738727577L40.480164505255225,54.60114194894165L40.53378150488138,57.07393320831738L40.81929202789068,87.3872067886599L40.86017499010563,56.96873003093631L40.89636646485329,62.02394717957064L41.239515262460706,68.29066795599982L41.262302487301824,74.79369376843411L41.5323981229186,-21.57626838549198L42.14095106867552,13.360468361277292L42.246174430441854,78.1734821415445L43.09064217455387,97.4362810428158L43.34130164780617,122.45901707852978L43.415695234787464,133.85155074154358L43.4786952093482,142.1532211105327L43.8808227065444,95.73465676152517L44.31176934103966,26.823518585682713L44.80839680007696,66.05854353054481L44.969247798955436,101.91424728017172L45.11669454792738,34.735128447033766L45.26816257187128,67.16699667074182L46.60054501258135,61.88485460656885L46.67359817457199,4.9469706316425786L46.734587511646744,56.91481913946253L46.95642784759998,104.98080273412374L47.07840652174949,54.754486486746295L47.13135330888033,40.36222867942833L47.276119207870956,49.36516713963669L47.30225749518871,-6.136005382298867L47.48790635639429,-8.364070273990928L47.63870416784287,10.13150542114204L47.68159776754379,59.63948453200965L47.79888495422602,77.86501449301629L48.47646978700161,65.23850805275764L48.49523573687077,81.22227508335939L49.117192932534216,64.02839914055978L49.16745886968374,45.84603529662809L49.211692894375325,102.90482265112624L49.374554530739786,91.75886359667024L49.39533111809492,132.0062576429686L49.69424589101076,87.83706159617752L49.784724577879906,48.27636041930121L49.78606500287056,48.719490483163426L49.811533077692985,82.90822375505785L50.08296913830042,128.6454388845037L50.221703124833105,134.9294470983965L50.43550091084242,152.6655744238362L50.81014969573021,151.14875815979354L50.83360713306665,101.72005965076544L51.4703090036273,57.9423050896425L52.01050027486086,72.73169815805915L52.92668075597286,106.51868709121952L52.944106280851365,120.78639854598107L52.98834030554295,148.0731403764333L53.12305301710367,118.48402892028709L53.50239328945876,100.47640133818467L53.62035068863631,97.99222992318478L53.637776213514805,94.61935332071218L53.733616600346565,135.57860565790588L53.93199949896336,101.26509912222977L54.02716967329979,134.9125906554473L54.09016964786053,97.43635381275674L54.09955262279511,79.0472346347226L54.559318394589425,7.343791266744465L54.58411625691652,73.3184920571771L54.91453101711273,102.5002222629157L55.2489670522809,124.83944886137957L55.3977542262435,140.2057792825139L55.55659458763599,148.14449496526902L55.56195628759861,125.70627095795824L55.65042433698177,113.41440157969123L55.74894557379484,126.54135911514392L55.87896679788828,128.64220452330554L55.89773274775744,115.63664256642336L56.12158372119665,27.619116948048173L56.12962627114057,51.3887646886365L56.15375392097235,73.5884057480585L56.18994539572,100.94645603331952L56.2147432580471,74.8281572512132L56.239541120374206,104.37795513975068L56.32197725729942,97.37589152861821L56.54046653077603,117.77406953430537L56.64971116751432,129.86340990539767L56.69930689216852,119.12427304315595L57.29177473803758,104.45538129721125L57.60677461084128,118.06401069790977L57.66307246044874,98.24630706325013L58.05983825768232,122.29035445387265L58.07994463254213,112.2448416945565L58.207955219149596,78.54406841470819L58.44387001750469,49.63916011846342L58.636221003663536,62.28700585055134L58.82052943987846,86.96921419992294L58.89559323935509,89.79273421815175L59.461252585411074,80.86355550651163L59.54167808485031,54.40326047445127L59.84729498271942,48.05003337328813L60.11940125582218,96.74812190716821L60.65423082709312,144.5738382286961L60.80167757606507,168.67296971141656L60.850603088223934,150.44964438837587L61.0161455745697,154.65049732038133L61.170964660990236,155.86612501664774L61.74935804445744,99.1193045309009L61.97320901789665,115.25737245724349L62.75802784992456,67.28451083412602L62.80628314958811,47.33116655913417L62.86928312414885,85.26965434908406L62.99528307327032,57.21557100333191L63.04890007289648,82.64211748423699L63.13401705980301,80.55165406920587L63.16819789706468,57.06624034824732L63.20371915931702,48.37934791902721L63.54686795692444,35.3710790892928L63.64605940623284,62.08503637393583L63.919506104326246,85.9709176177729L64.0099847911954,121.43901966124466L64.11118687798977,72.59348715618506L64.56425052483081,104.51106044350783L64.61719731196165,139.6932704739317L65.21234600781203,168.28270143495558L65.50925014324189,172.05223703697825L65.66071816718578,173.82552417546788L65.80213300369978,184.2536720400233L66.53333483610153,166.40203487664627L66.58628162323237,109.2425047375769L67.05878143243788,109.60109149633003L67.57015356637238,123.25378552521317L67.78127050240039,42.51342528144131L67.8436002644658,87.2536515644114L68.22629159929753,110.87249523556765L68.55737657198907,144.09842059602238L68.81875944516659,143.98349361794791L68.96888704411984,84.48366761295848L68.99100405646563,67.77546171896795L69.09354656825066,56.247612769132424L69.10359975568056,96.27606170617624L69.34554646649362,40.570389146998785L69.50505704038144,73.08379604415778L69.60961018965244,127.07712548513909L70.24296099773646,113.05683679865945L70.57270554543734,87.32957915778853L70.88569478075505,97.55399265253702L71.26838611558675,120.74025133247112L71.39170521472693,118.43528979360461L71.45001370182037,111.25331380565318L71.56998173848392,109.50546276218294L71.5920987508297,116.56183136808798L72.86483227945567,59.31796330602424L72.8829280168295,108.42637618699116L72.89432162925006,125.02196641594952L73.23009808940888,145.10217859013687L73.26159807668924,173.0218822011693L73.3426937886238,156.98781672699053L73.48209798765183,178.25774845580585L73.84334252263308,120.97416667828819L73.84736379760504,130.34438174254828L73.92242759708166,88.18928114244112L74.04172542124986,130.63907707943093L74.53098054283858,74.77656957520567L74.57856563000679,43.419870818604615L75.156959013474,107.50020914014655L75.4304057115674,107.56000519274507L76.07783098205327,136.47278771450542L76.18372455631496,121.18101848577332L76.31374578040838,57.98944760363159L76.7534051773429,106.91735670567726L77.00004337562322,153.59820658376515L77.27013901124,131.9750393767832L77.47723467229605,100.47673357390653L77.50538359709978,130.2939341605804L78.27210669175386,161.69798719631765L78.39877685337066,164.42275489197561L78.42893641566037,148.79069781565244L78.7097554512024,121.64326756651212L79.2734041597724,112.52491053060109L79.33841477181912,81.61779357783915L79.48049982082844,89.97876417958116L79.86989328061343,85.07872676830189L79.879276255548,93.52624358364848L80.06023362928629,115.26654008308178L80.23716972805262,151.06533240947334L80.3685313771367,161.17986468339L80.73513761208058,178.11573765923876L80.81422268652916,160.16107790299066L80.86515883617402,113.86366864338544L81.09303108458518,123.63612791186308L81.38256288256646,127.58231484973503L81.70292445533276,89.25904642506315L81.73710529259444,42.424423061481484L81.75184996749162,47.234036945972285L81.77396697983743,34.070510779828695L81.7907222922206,1.9402803307991328L81.96497754100561,62.180408374261624L82.03467964051963,51.88296543318375L82.03669027800561,87.45560318948814L82.25048806401492,134.87322909627753L82.44216883767842,104.05799496286993L83.23167915717363,111.2705394821051L84.10295540109873,103.62649399145691L84.59288073518277,128.7182396603861L84.7698168339491,139.72450013653983L84.86632743327617,104.45445851617896L84.89782742055654,100.4584025400194L84.9762422825098,71.14622256009768L85.05398693196774,85.31574374180362L85.05867841943503,77.86528467345875L85.7208483648181,93.40207897681098L85.9266036008835,132.1070460648256L86.30661408573388,72.22362198128373L86.35218853541612,125.47451464931726L86.4037948975563,145.1736348032167L86.41317787249088,137.01445950883164L86.43931615980864,146.53407883365338L86.46076295965909,67.401829990006L86.85752875689269,68.18926264786869L87.1484009798646,85.94770593568002L87.19464564204216,120.37298435349476L87.389007265687,105.45129723520412L87.39973066561222,92.86852909252595L87.51366678981782,90.40393147272809L87.53846465214491,122.16796239008353L87.79515603785515,75.48491337862902L87.80789007526636,77.30128245279869L88.96132577972413,108.34746080341341L88.98411300456524,132.12624235754052L89.31720861474275,105.17778914952721L90.08259128440619,143.45569421608454L90.21127208350896,161.11936088321374L90.53833578122854,128.49646242150789L90.81915481677056,106.04697832607651L90.83993140412569,141.12636538680437L90.93845264093875,128.08397570599828L91.158282339406,120.75520122168427L91.67166511082648,98.16842065232557L91.72863317292928,103.81776049619073L91.82447355976105,130.34665124558512L92.08250537046194,158.1736544722743L92.2654733816862,108.22808882306617L92.58114346698522,113.36788397547822L92.94104757697583,113.27886006455408L93.03554753881693,108.03717499923194L93.39210058633088,116.54247426066217L93.40282398625612,108.03326313721442L93.81165360840558,99.55584701154294L93.85320678311587,144.97657610374029L93.98858970717191,102.170424768038L94.70102558970451,62.6208402853454L94.91817443819046,14.058130903904875L94.93358932558297,41.60547655860053L95.25059983587265,19.724753588942974L95.65875924552678,13.045941872359785L95.69830178275109,20.351974637606396L95.9248336061716,72.8154896286429L95.98984421821832,10.949119059117221L96.15605691705942,59.268065089950085L96.44424829005003,68.82059213373894L96.86983322458268,-1.5270695915787276L97.03604592342377,35.9229431808263L97.21901393464803,48.2767187402185L97.39595003341435,73.8082079407614L97.43348193315268,86.49436994940886L97.50251382017136,108.18003316455815L98.05275827883482,87.74719145015725L98.20958800274133,96.1305555111095L98.2531518149376,97.96077834812179L98.67270483701229,121.77202325783993L99.05472595934867,103.92634122214142L99.18206633346081,116.98521699279527L99.33353435740472,134.07259207067688L99.50913003118038,80.99384816616028L99.89852349096537,139.4921167577106L100.20078932635785,48.009933994777036L100.27317227585316,61.14966605777867L100.45412964959144,101.39204282322517L100.92662945879698,57.652709384486435L101.10691662003994,47.563246143842626L101.14645915726423,92.99519297080091L101.20007615689039,113.1732646837827L101.25034209403992,94.52155066692808L101.42660798031092,105.4849128652318L101.53652282954455,89.196839982303L101.8206929275632,129.56229228049796L101.83409717746973,96.79198550607187L102.33139484900236,87.9696620729294L102.46208628559113,105.07359696162435L102.48286287294626,65.57503748887291L102.51972456018925,117.39099978158826L102.54318199752569,119.2883372491515L102.54988412247897,108.17244352414036L102.88901164511442,95.21109742849359L103.17720301810502,119.96540597514314L103.3977029290676,129.99053869110165L103.43657525379658,102.22675967690537L103.81323467617034,104.39444721680056L103.8320006260395,140.12837675910095L103.94526653774976,135.95714976827566L104.17380899865627,147.92609715755268L104.29176639783383,132.36531002264297L104.40168124706744,149.84123277321189L104.41106422200203,126.67252387899468L104.69389389503003,129.51276811737068L104.73209600726366,84.98521860291005L104.81453214418889,68.69065348738808L104.93248954336643,119.38896434120248L104.99951079289913,64.33261394675667L105.78432962492705,68.14798730242478L106.28631878392697,68.29903822280724L106.72597818086147,110.45698300434233L106.7266483933568,111.25773225924385L106.76552071808577,102.04135659446216L107.11470142815112,137.9001589870354L107.38412685127258,117.74695999058498L107.51414807536601,38.038911367009476L107.66360546182393,16.970748732609895L108.03423297173977,-11.776855567707438L108.12069038363694,70.853106809665L108.37202006938458,106.91320799542432L108.51745618087054,48.927167300218L109.04558362718821,67.81780906054398L109.17895591375827,16.03780929914184L109.4604451617956,54.19313514130953L109.63939189804793,90.9172267749171L109.74126419733763,99.6604214348517L109.90144498372078,89.66508431465581L110.1105512822628,127.31760657012619L110.6494021285057,99.20782443961261L110.92418925158978,55.65895185589064L110.9322318015337,94.72308650403536L111.1735082998514,98.89884198151708L111.28141251159907,56.64471009037503L111.70632723363639,-30.28226528981096L111.73179530845881,-7.403448912986089L111.78005060812234,57.83190290429842L111.95698670688867,-9.376902740379395L112.02936965638399,43.727381989271336L112.35107165414095,90.15046449978469L112.47841202825308,129.08778196020404L112.55615667771102,140.13260101594685L112.72303958904743,126.09853747550453L113.03200754939317,123.75340319452431L113.26457128527164,88.0410687646261L113.46831588385105,89.42135388709225L113.92204974318742,131.93643811362656L114.73501750001908,130.25562403784156L114.73568771251439,150.63749188596242L114.82884724936486,169.99977873721437L114.84895362422466,130.6924396602679L114.87643233653307,135.8451651171565L115.16596413451434,113.96845543975358L115.41394275778532,124.84460985834785L115.69342136833669,100.79601630053887L115.7014639182806,118.37180665204933L115.99233614125252,74.91488404075294L116.37100620111227,108.11822667324996L116.39312321345807,120.42335610629557L116.7490060484767,85.11631944051088L117.1263356833458,94.9124597459167L117.4815483058691,97.09981508053154L118.9908668453455,121.57445220188225L119.05453703240156,106.97239368543444L119.21605824377536,96.63538924335818L119.37288796768189,121.33655201147083L119.50156876678467,52.73616990473658L119.57127086629869,86.41341202777454L120.06588768785001,137.14939644973398L120.18116423704625,144.80444755658462L120.24014293663501,127.09996295463422L120.30448333618641,125.38362325689634L120.33330247348547,110.75567282213743L120.58798322170973,112.953119670557L120.68583424602747,73.24894223796265L121.76420615100861,25.065365269042417L121.80039762575626,45.04615414622941L121.89556780009269,69.79664000406663L122.43173779635428,30.3847289790717L122.59258879523277,90.46391355476001L122.86201421835423,120.55020827022348L123.22526939082145,142.42131104976156L123.32379062763454,102.32603296599213L123.5710990384102,130.10133197092978L123.57981180084944,160.45507585182267L123.63677986295224,136.29177993196978L123.90687549856901,136.24351101836402L123.97791802307368,98.82846633277741L124.40149232012033,125.07370877761157L124.57373693141936,61.55472665943067L124.79959854234457,86.94053424996395L124.8994602041483,20.79805535207836L125.11057714017629,73.95910666338067L125.11392820265294,94.12210125319305L125.34515151354074,103.3050926828353L125.36659831339121,119.4412300257632L125.70840668600798,124.90404235990341L125.79017261043788,87.58625956962901L125.97716189663412,76.65738620777906L126.62927865458727,121.46068120501809L126.84307644059658,144.0124683271892L126.940257252419,129.11172513293548L126.97108702720404,137.4676396538642L127.32361879974604,140.1885066393919L127.35042729955912,124.43982213225598L127.37053367441892,105.99375981950578L127.37723579937219,70.82212157699719L127.42817194901706,52.64527531550818L127.45095917385817,37.14980524326335L127.84303348362445,69.25286570061448L128.00321427000762,62.80910831433189L128.1593737814188,66.14024045946456L128.58227786597013,107.78182660085602L128.6064055158019,103.35046684543781L128.81216075186728,101.07818753935861L128.81283096436263,89.41110364530078L129.1841286867738,66.84197839969006L129.27862864861487,94.1039405385799L129.475671122241,122.94405944516942L129.58022427151204,117.41604969983806L129.88181989440918,105.81703836703834L129.96626666882037,89.51002269696502L130.1726921173811,94.55321889227888L130.2122346546054,88.02327501062655L130.2919899415493,50.03907698241892L131.16795767294167,57.14556355137414L131.22157467256784,88.44819960338818L131.5707553826332,84.53594273451714L131.8281169808388,97.26606209946769L132.36093591462372,95.17061970002423L132.82874423636198,122.46920019872084L132.89509527339936,87.96093683927823L132.98624417276383,104.93495620072731L133.0680100971937,125.59603112057086L133.10688242192268,161.7987786735362L133.15312708410025,153.93618426159108L133.15580793408154,115.3075735316532L133.66852049300672,131.21085757059558L133.8300417043805,124.68060017794471L133.9660948409319,115.84501143458952L134.04652034037113,105.17996749723528L134.55052013685702,79.49688355208764L134.62089244886639,82.14683787976443L134.74086048552988,97.5837170831598L134.75024346046447,101.32105317203768L134.77437111029624,116.14103115476684L134.80184982260465,133.25441367839858L134.8648497971654,114.4403523698075L134.89769020943643,112.10535850146167L135.0766369456887,122.88980581187258L135.73344519110918,110.3695774963835L135.89630682747364,125.6125472748266L136.42577469878196,101.40148942260547L136.4706789359689,126.116432238294L136.51156189818383,121.20872486994196L137.16837014360428,129.59372763054387L137.52023170365098,133.70729504491243L137.7849656393051,100.13945642493923L137.87611453866958,58.87608389126594L137.8861677260995,11.10603428195158L138.50075258431434,81.67419529526981L138.76414609497786,109.7654165294487L138.77688013238907,58.26313327331637L138.82111415708064,49.76905183816536L138.92901836882828,59.06267070386987L138.99000770590305,71.90821562011281L139.02217790567875,125.1177057661511L139.15152891727683,132.27857213704948L139.35527351585628,107.08783455635158L140.17025191017387,82.35613811660184L140.34785822143553,48.3720456498941L140.42426244590283,83.37762773572233L140.59650705720185,72.78692101546406L140.88000694272517,85.92274397226443L140.91351756749154,108.54148856486815L141.02879411668778,122.09293268871127L141.05359197901487,89.77680548937676L141.21913446536064,128.96965033641234L141.52140030075313,131.11455553309435L141.5401662506223,108.7281270508241L141.65879386229517,132.96337477953293L142.05153838455678,119.15395361084317L142.18021918365955,120.28031249346726L142.22311278336048,99.46533772276356L142.47578289409876,75.77331745025886L142.61384666813612,95.72339148617897L142.9536444032669,86.19151363908091L143.8423461720705,84.28164807794221L144.001186533463,16.698429247904304L144.40599488064052,-51.093068104838636L144.49580335501432,42.176029078817436L144.63185649156569,86.05377982502878L144.96562231423854,94.45656055363054L144.98103720163107,116.11871421996435L145.10971800073386,112.473392153666L145.34898386156559,30.628190438816585L145.40059022370576,73.66182407516231L145.59294120986462,101.02784226273758L145.7015156341076,123.27071976563262L145.86772833294867,155.9850587197986L146.1311218436122,149.02869853845482L146.22696223044395,160.5389125173924L146.3670366419673,96.14062360267822L146.5888769779205,40.19887810831924L146.69410033968686,56.292765221405446L146.9930151126027,85.00350618063433L147.14783419902324,63.74448122962789L147.36163198503255,89.50082153357377L147.421951109612,93.2240638315072L147.57274892106057,90.57570775528495L147.77850415712595,111.63829651639529L148.25904651627542,135.5897370758286L148.53249321436883,140.643724391459L148.5586315016866,114.71138727533655L148.56533362663984,110.86030510332297L148.9419930490136,142.0891446364262L149.06598236064912,60.141936744450135L149.43862050805092,106.47315647289497L149.51971621998547,90.86572036754036L149.57400343210696,75.84575637184027L149.65509914404154,50.471707881277624L149.83002460532188,81.65740899628214L149.95669476693868,134.9480703562805L150.40506692631243,132.88567351891604L150.56122643772363,72.03686436594148L150.91174757277966,58.48304963927599L150.98077945979836,55.55023509865368L151.52231115602257,81.01968739569946L151.6576940800786,105.53278644213157L151.8587578286767,84.79616378144016L152.19520450133084,47.24698627844528L152.59733199852704,43.55329657847392L152.65899154809713,66.74287457211017L152.93712973365783,112.38874892531587L153.2514593939662,146.91137521868413L153.2782678937793,159.3793328349318L153.61002307896615,167.9866212073422L154.12608670036792,169.74820756237733L154.35999086123704,161.2011310412926L154.85192683280707,152.5102116584476L154.85460768278838,118.89361240034371L154.89146937003136,114.23419849971698L155.12939480587247,64.12591754627161L155.245341567564,90.20161660596081L155.5476074029565,106.22023428187238L155.82574558851718,117.22305371708L156.04892634946108,118.78710845698907L156.08511782420874,159.69498674972047L156.1219795114517,106.51587628414731L156.12533057392835,80.01178864280502L156.3096390101433,124.92156064464004L156.34113899742366,113.65747736556823L156.34247942241433,142.88078318542748L156.48523468391895,141.3639565852961L156.5602984833956,88.98481008159736L156.92958556832073,111.52016635473848L157.32903221553562,122.78666878222909L157.538808726573,144.57357313449447L157.91211708647012,154.1738998618827L158.17349995964767,132.05943568612395L158.32563819608689,124.55556673291665L158.33435095852613,81.37464286068078L158.53005300716163,94.90036307204747L158.631255093956,113.71046409218114L158.65002104382515,127.90553844462362L158.7900954553485,125.02812471160733L158.90068051707743,-1.057967517120174L158.9341911418438,71.66496276327939L159.24248888969422,95.86492215419892L159.2920846143484,107.04501050247109L159.4723717755914,107.37560510757031L159.50320155037642,88.06886196830312L160.33560546957256,102.64326951180453L160.34967993197444,67.54151243297956L160.35437141944172,65.2682210020935L160.3965948066473,74.9627512812225L160.66602022976875,127.2502196140704L160.8060946412921,114.26852818711735L161.07753070189952,50.43756946650696L161.14723280141354,102.15423573519641L162.33551955562828,103.7140089577841L163.0848171254039,120.57316567418445L163.35223191103935,78.77768988766589L163.94805081938506,90.96123394651573L164.40111446622612,70.73796389431784L164.4701463532448,73.69386279929056L164.6169228897214,116.42065015218878L165.20469924812318,107.49934500813194L165.35884812204839,95.99851563450989L165.39235874681475,80.40066758267965L165.62827354516983,83.44528394850616L166.34741155265567,89.3253394121597L166.48748596417906,88.37400536883676L166.78304967461827,123.63552959764348L166.78573052459956,111.49337555883095L167.05649637271165,116.55106461356849L167.0752623225808,90.27225084288419L167.32659200832845,99.59950843739904L167.3286026458144,71.99582073075592L167.69453866826296,73.75552613259536L167.73140035550594,102.97066536998757L168.49209153770207,126.54744407614673L168.74945313590766,141.32756758935395L168.8399318227768,151.90698520561105L169.1234317083001,159.1966156593692L169.20318699524404,151.66959856764586L169.3714103315711,69.01976154714598L169.54298473037483,94.4283187138943L169.7185804041505,95.10229399719677L170.32110143744947,94.29765878373642L170.73864382203817,82.78345503160132L170.84520760879516,104.15962284977599L171.19371810636522,98.00971196006904L171.64812217819693,119.9006088962658L172.2781219238043,85.95653803039298L172.6527707086921,102.94197806092406L172.78815363274813,126.26109780241745L173.13934498029946,146.34029852389972L173.19832367988823,147.83456092342297L173.2070364423275,158.98284383925485L173.4161427408695,177.76093690379102L173.54080226500034,145.357630425726L173.86116383776667,109.0283124850187L174.2398338976264,38.665363124488955L174.247206235075,99.48659067647594L174.3832593716264,114.37508445153406L174.46100402108434,136.27023027091613L175.08698249171974,57.53007452647089L175.39192917709352,102.81839865200786L176.3322373080373,142.4957158801833L176.38384367017744,154.33935481137772L176.8469605044484,85.28483080307676L176.9930668284297,104.96438336482085L177.01652426576615,76.92140256017387L177.34492838847638,62.331684105499875L177.38648156318666,95.35173953969355L177.4233432504296,121.44987751851741L177.8274813851118,136.00631859579767L178.24502376970054,152.69315165358594L178.2919386443734,129.78862476067064L178.3113748067379,117.51747830550394L179.24967230019567,125.41642200450684L179.4165552115321,116.89954048995598L179.5278104857564,130.66487122977207L179.76439549660682,140.4748573977773L179.77981038399935,166.3468571712459L179.8803422582984,141.6059924741681L180.46945904169084,156.6345178198378L180.63165046555994,56.794704215581504L180.81662911427023,111.3780419685483L180.86421420143841,124.40087261646073L181.13498004955053,124.29576579787357L181.44059694741964,155.67677219255305L181.51834159687758,129.4969500569984L181.80854360735415,141.6546368667274L182.26294767918586,150.799045516487L182.32728807873727,155.54277443813598L183.32791533426047,148.62924960798838L184.20455327814818,131.8949781170291L184.44515956397058,64.46903436355886L185.1441911965966,67.19702087392052L185.2098720211387,68.2004442647014L185.2179145710826,85.33991319832042L185.37742514497043,108.60313537266455L185.92431854115725,124.61070683094474L185.98396745324135,102.56759621452461L186.2956162635684,72.80949016356675L186.29695668855905,77.35666842523844L186.43368003760577,112.51234293404785L186.70980758568047,142.0315738819119L186.71181822316646,74.98476686361177L186.95510535897014,96.75223569057651L186.9886159837365,56.29711011865318L187.18364781987665,52.9775568145181L187.286860544157,60.00500091050222L187.3733179560542,69.65291320170606L187.51272215508223,79.60767727741175L187.61727530435326,85.37392538384735L187.82236032792332,128.21484736211713L187.90814752732516,110.14945461639884L188.34512607427834,75.6665156121484L189.04013643193247,101.01263936357972L189.11654065639974,106.34045029271428L189.12860448131562,127.02643858670135L189.29146611768007,142.8823740673214L189.98513605034353,139.6750614855458L189.98647647533417,112.94546674069151L189.99518923777342,105.29786208430231L190.0937104745865,90.43968980921977L190.21233808625934,73.55238747553094L190.29812528566123,119.02287384236284L190.33498697290423,106.61871293750795L190.48578478435277,131.10635711466122L190.64730599572658,112.69104805042511L190.95493353108168,140.5008310447879L191.0501037054181,128.05610503382485L191.1546568546891,152.67690853147283L191.21765682924985,135.2717395634762L191.80610340014698,141.91664065852015L192.0721777607918,122.42473702882742L192.1753904850721,73.67971652840467L192.2879861842871,56.96099384046011L192.62376264444592,84.38105807746994L192.65191156924965,79.6259926547977L193.05269864145515,92.59476756209335L193.22561346524952,104.40341575210715L193.43337933880093,117.97738475369945L193.56675162537098,96.31165707698871L193.91794297292233,99.36860693326892L193.99970889735224,95.56087590460312L194.42462361938954,105.01136554070071L194.98089999051095,129.3625390407495L195.12566588950156,152.51781376543454L195.3877189751744,171.22649268248827L195.45339979971646,131.8277152408545L195.74494223518371,128.3660338743986L195.9305910963893,138.16655260810788L196.75495246564148,144.53242482908564L196.82264392766953,151.3119210752134L197.50156918543578,139.54551868683643L197.64566487193107,47.257807472819884L198.19121784312725,83.91335844429915L198.41640924155712,100.49746994703452L199.01222814990282,6.930406773506544L199.39290884724855,90.7011194619281L199.4780258341551,29.070573027020984L199.5182385838747,73.54894821541575L199.91902565608024,94.3751046636389L200.01486604291202,111.67635868235996L200.07451495499612,133.19778456248793L200.36672760295866,145.10474983412132L200.4196743900895,92.63068396411732L200.8465997496128,71.21106261526467L201.0798336979866,99.98467348753503L201.09323794789316,107.40915697683846L201.2259400219679,64.26293564479028L201.64616325653793,95.63930620911646L201.78891851804255,-1.5890910034770085L201.86465253001452,21.232812643488977L201.94775887943504,51.07524341078389L202.19975877767803,42.60704656665814L202.26745023970605,83.5833591604791L202.2761630021453,111.31149626853677L202.44840761344432,48.923825015287456L202.6313756246686,18.559901129886576L202.79624789851906,33.3412175479587L203.04958822175266,89.96669401507444L203.10253500888348,91.6576543179595L203.20842858314515,75.25385217619834L203.36860936952831,107.50304365464554L203.9416410530329,137.52831552711126L204.02742825243473,111.25814940223881L204.14739628909825,89.90065058071758L204.20704520118235,111.0941852735706L204.49188551169632,94.82968261347617L204.68557692284585,131.40883481556588L204.7244492475748,79.36675240185579L205.0816725075841,98.988948549337L205.39600216789245,127.67717138797254L205.57427869164943,85.30722968563394L205.71837437814472,124.37857261192552L206.46700173542501,129.2473629556874L206.5641825472474,145.68990717304754L206.66002293407917,145.6411365780175L206.6975548338175,152.53863109495424L206.80612925806045,161.3648981882098L207.0681823437333,123.91062884907565L207.170054643023,142.0111002165087L207.1774269804716,162.47681322752368L207.58893745260238,128.79621573652807L207.77458631380796,120.58181028904075L207.78933098870516,82.72617482355763L207.87109691313506,52.465626870794054L207.90728838788272,66.71472453043064L208.12175638638735,86.25222336690958L208.40458605941532,78.67991250884631L209.324117603004,87.51321687442193L209.44944733963013,96.43625426614385L209.45950052706004,114.10181143786352L209.50708561422826,16.926414403958983L209.67798980053664,39.41988990894227L209.6846919254899,5.531626178581179L209.9775747859478,72.7201759429323L210.41120227042438,108.21956940857773L210.588808581686,131.29843943838816L211.0432126535177,106.07570275706973L211.0901275281906,104.46413879996234L211.29923382673263,142.41995144788024L211.34614870140553,66.6246539021457L211.51973373769522,89.51267701034334L211.58206349976064,27.416241754439877L211.87025487275122,87.29478790212778L211.99424418438673,105.73419611044103L212.1302973209381,93.28875348102274L212.22814834525587,33.35139910512087L212.41647805644274,70.78088454280405L212.51164823077917,64.84045187174367L212.54314821805954,105.07074397705142L212.56459501791002,50.19447186690317L212.88830765315294,91.03823221485302L212.8923289281249,118.65710208201894L212.99755228989125,133.75724142954905L212.9988927148819,115.43363404102575L213.05854162696602,124.9647301391695L213.32059471263884,121.93665293677012L213.58800949827432,18.353093770442374L213.6074456606388,98.09049639003594L213.92646680841446,118.68483053669662L213.98008380804063,146.91539199050806L214.13825395693777,145.42824258449596L214.41036023004054,156.8534285240263L214.41304108002186,119.54856424175426L214.69654096554518,145.91921759054264L214.86543451436756,146.9799146141445L215.04505146311521,160.18461105353774L215.17306204972266,101.0025826709842L215.26220031160116,108.68397278608165L215.28230668646097,111.59320060603275L215.51084914736748,132.36648816687466L215.85734900745155,117.18547569084406L216.03897659368516,132.10290629819735L216.31175307928325,160.1029927604115L216.43708281590938,141.30476799755175L216.83921031310558,140.51974716962548L217.0034123744607,155.3024023473426L217.61062489522695,168.69892066157144L218.0884864043951,167.19238033593294L218.09049704188106,179.74648851997588L218.17159275381564,145.85430957903068L218.4209118020773,156.67470932534806L219.00332646051643,148.43311091669523L219.45370925737618,133.4990828048823L219.87192185446023,125.04172569502884L219.89135801682474,131.8204173655216L220.0770068780303,142.89591114054207L220.3303472012639,136.7526197347456L220.41881525064707,90.50082599860595L220.53208116235734,81.11227276150872L220.81625126037596,112.14482027487738L220.82228317283392,149.17622991281584L220.83568742274045,125.48249177588102L221.09640008342268,105.97394388977186L221.47372971829176,129.96156489632523L221.58431478002072,120.45121472515515L221.77599555368423,95.2781381937416L222.02598481444122,66.7422149105846L222.1995698507309,-21.935030673680274L222.31082512495516,26.510777216277997L222.6640271099925,24.977182618963276L222.94618657052516,40.87392132577706L223.2524736808896,63.124013865206244L223.6539309655905,102.72951399390521L224.0540478253007,102.62244217727499L224.3321860108614,102.2351895630798L224.38245194801092,80.49319236129259L224.44478171007634,104.32360619703655L224.88109004453423,96.93539831117485L225.3328132663846,54.102295555151166L225.34822815377714,101.01017931864172L225.51310042762756,113.16468848383822L225.6625578140855,136.70858587511609L225.95208961206674,114.46779893634034L225.95745131202938,129.03879115542685L226.12031294839383,68.79964612985216L227.04118491697312,100.51326107468499L227.159812528646,136.31837259798291L227.1846103909731,134.2580741244573L227.37092946467402,116.27648297906751L227.44599326415062,118.96783252466021L227.77439738686087,92.48326031684422L227.83404629894497,42.52231649827236L227.86219522374867,86.1116475948363L228.41914180736543,116.56746477070645L228.47208859449626,34.838014419210474L229.72136468578577,68.14602343789136L229.89427950958014,49.08721750601735L230.1040560206175,99.77847224213035L230.43648141829968,100.15629337764233L230.5537686049819,76.89138224771223L230.70456641643048,90.7649837135434L231.49675758590698,89.18268734039273L231.60734264763593,118.63514107390904L232.35060830495357,81.18042371883071L232.48398059152365,117.3729029278212L232.68772519010304,118.91777329532641L232.73732091475725,105.51444534197455L232.7641294145703,66.11873017520088L233.45243764727115,82.57989020035689L233.46919295965432,104.93847174845881L233.5107461343646,78.5580918697947L233.93365021891594,115.3708288945274L234.0167565683365,92.4538429277339L234.22921392935515,58.506041876045636L234.27143731656076,103.78621983969784L235.05290508611202,116.67706511448549L235.1018305982709,97.44181604266598L235.13266037305593,128.40511950804367L235.23989437230827,155.74349609269774L235.2633518096447,143.66801310535524L235.4175006835699,116.40601721487491L235.57433040747642,146.61303759117234L235.80019201840162,158.03771959177615L236.20365994058847,128.94340281098246L236.24588332779408,71.67520204826123L236.62924487512112,125.9267326978308L237.27063823314907,112.1431384432691L237.44221263195277,118.05859655877335L237.64796786801813,33.1775864927137L238.12918043966295,49.17774150258791L238.4341271250367,80.98720945969814L238.7464461478591,109.30479520986077L238.93477585904597,58.48714430906094L239.4468182054758,87.07201727271583L239.63313727917674,116.87981059040987L240.01917967648507,105.59296633678028L240.2115306626439,96.01549322160788L240.28458382463455,83.60624497375073L240.46956247334478,112.66584976307242L240.5091050105691,82.75839474803524L240.61231773484946,86.48690807775743L240.6511900595784,128.89433853356996L241.10693455640077,112.77622418689243L241.11832816882134,64.74843591290787L241.22020046811105,53.273561574930376L241.23896641798018,107.49517812573056L241.34754084222317,48.31721648411771L241.47354079134462,94.99332298085503L241.52715779097082,114.0135681050633L242.37497659755945,106.19012499838092L242.62362543332577,119.59199639724231L242.73421049505473,108.5121129680207L243.01033804312945,100.23247462012732L243.12293374234437,106.42812175803554L243.16448691705466,146.88953936610727L243.5129974146247,132.94862612795043L243.61889098888636,153.29878114325277L243.78041220026017,149.52243769611653L243.81794409999847,136.03402284405843L243.89434832446577,119.51559117298245L243.92182703677418,51.39589701787431L244.15238013516665,82.37607122429523L244.48011404538155,99.98253046745317L244.5089331826806,53.519765105649576L244.74082670606373,112.74829794514218L244.86414580520392,132.30129256441373L245.0223159541011,121.42271203206086L245.42913493876458,113.05094612509987L245.6536561246991,125.44484801465305L245.83059222346543,124.9768873298915L246.08125169671774,122.87812860402153L246.43512389425038,151.11634966633588L246.44115580670834,107.52866173861575L246.59128340566158,140.09516283170967L246.64221955530644,113.95692784444253L246.87612371617556,132.41447560149894L246.9123151909232,158.1290421549079L247.19313422646522,89.90288544192846L247.38280436264276,121.42310036864306L247.5999532111287,152.69336626149502L247.93908073376417,143.8568490266L247.98733603342774,159.08077799947623L248.16762319467068,184.30442694920168L248.2406763566613,173.1804196781108L248.32110185610054,124.11987082298349" fill="none"></path></g></g></g></g><g opacity="0.2"><g><g><g><path style="fill: none;" stroke="rgb(204, 51, 17)" stroke-width="2px" d="M33.828305489134785,-105.79869252601368L33.869858663845065,42.26594939567854L33.90336928861141,-141.28734624686555L33.94425225082636,-219.13976361526946L34.438869072377685,82.8401850316424L34.473049909639364,135.47358071041316L34.67478387073278,-144.73997210662745L34.76861362007856,168.85973163197335L35.05680499306917,64.16136863547909L35.11176241768598,44.63892028980155L35.1767730297327,101.41489573438767L35.68613452618123,46.9436211506777L35.72567706340551,170.99603119834308L36.403932108676436,50.945827355151444L36.521219295358655,-120.25164460162722L36.842251080620294,47.635924011907576L36.95149571735859,97.21022838534972L37.092910553872585,135.48448925825238L37.34625087710619,143.38837578147061L37.469569976246355,163.2126460756741L37.52519761335849,-107.44239740025102L37.66594223737717,64.757383126118L38.00037827254534,61.42808680893779L38.00842082248926,49.04975073676174L38.104261209321024,49.01297549452004L38.17932500879765,-205.5775353425467L38.30599517041445,-12.886165148000481L38.51242061897516,36.49159744792195L38.73694180490971,79.75283109763134L38.76039924224615,92.10468974705903L38.91655875365734,54.653249080807726L38.992962978124616,119.08918614727409L39.020441690433024,183.74772899789747L39.20609055163861,96.69537499396577L39.498973412096504,47.57402434509911L39.716792473077774,107.47930606314678L39.85619667210579,113.34010895721556L40.480164505255225,-16.617471049890405L40.53378150488138,60.78312009242272L40.81929202789068,132.85711712270458L40.86017499010563,11.341014916308358L40.89636646485329,69.60677290033269L41.239515262460706,77.69074911901515L41.262302487301824,84.54823248607165L41.5323981229186,-166.13121160736563L42.14095106867552,65.76557347947009L42.246174430441854,175.3930028097625L43.09064217455387,126.33047939433357L43.34130164780617,159.99312113179738L43.415695234787464,150.94035123598144L43.4786952093482,154.60572666398016L43.8808227065444,26.106810238135452L44.31176934103966,-76.54318867797278L44.80839680007696,124.911080947801L44.969247798955436,155.69780290459184L45.11669454792738,-66.0335498026503L45.26816257187128,115.81479900629739L46.60054501258135,53.96164151031006L46.67359817457199,-80.45985533074271L46.734587511646744,134.86659190119013L46.95642784759998,177.07977812611426L47.07840652174949,-20.584987884319073L47.13135330888033,18.773841968451453L47.276119207870956,62.869574829949244L47.30225749518871,-89.38776416520201L47.438980844235424,-29.559011406801428L47.48790635639429,2.3476360031724552L47.63870416784287,37.87486896384151L47.68159776754379,133.9014531983111L47.79888495422602,105.20330943452623L48.47646978700161,46.298748392369696L48.49523573687077,105.19792562926192L49.117192932534216,38.23758522636043L49.16745886968374,18.57248953073048L49.211692894375325,188.4930036828734L49.374554530739786,75.03992501498618L49.39533111809492,192.3773487124161L49.69424589101076,21.583267525990923L49.784724577879906,-11.064691346013262L49.78606500287056,49.38418557895681L49.811533077692985,134.1913236628995L50.08296913830042,197.2512615786724L50.221703124833105,144.35545941923573L50.43550091084242,179.26976541199576L50.81014969573021,148.8735337637296L50.83360713306665,27.57701188722321L51.4703090036273,-7.724326752041861L52.01050027486086,94.91578776068408L52.92668075597286,157.19917049096006L52.944106280851365,142.18796572812343L52.98834030554295,189.0032531221116L53.12305301710367,74.10036173606778L53.50239328945876,73.46495996503101L53.62035068863631,94.26597280068492L53.637776213514805,89.56003841700331L53.733616600346565,197.01748416369642L53.93199949896336,49.79483931871568L54.02716967329979,185.3838279552736L54.09016964786053,41.221998548720954L54.09955262279511,51.46355586767129L54.559318394589425,-100.21137378522273L54.58411625691652,172.28054324282607L54.91453101711273,146.27281757152357L55.2489670522809,158.3482887590754L55.3977542262435,163.2552749142154L55.55659458763599,160.05256848940172L55.56195628759861,92.048934946992L55.65042433698177,94.97659751229071L55.74894557379484,146.23179541832295L55.87896679788828,131.79347263554806L55.89773274775744,96.1282996311001L56.12158372119665,-104.40717147951463L56.12962627114057,87.043236299519L56.15375392097235,106.8878673371915L56.18994539572,141.98353146121102L56.2147432580471,35.65070907805376L56.239541120374206,148.70265197255688L56.32197725729942,86.87279611191944L56.54046653077603,148.3713365428361L56.64971116751432,147.9974204620361L56.69930689216852,103.01556774979336L57.29177473803758,82.45204367829415L57.60677461084128,138.47695479895756L57.66307246044874,68.51975161126063L58.05983825768232,158.35642553980642L58.07994463254213,97.17657255558227L58.207955219149596,27.992908494935808L58.44387001750469,6.28179767409626L58.636221003663536,81.25877444868318L58.82052943987846,123.99252672398032L58.89559323935509,94.02801424549494L59.461252585411074,67.46978743905146L59.54167808485031,14.712817926360671L59.84729498271942,38.520192721543395L60.11940125582218,169.79525470798833L60.65423082709312,216.3124127109879L60.80167757606507,204.82166693549723L60.850603088223934,123.11465640381488L61.0161455745697,160.95177671838954L61.170964660990236,157.68956656104731L61.74935804445744,13.99907380228064L61.97320901789665,139.46447434675736L62.75802784992456,-4.674781600550115L62.80628314958811,17.40115014664641L62.86928312414885,142.17738603400892L62.99528307327032,15.134445984703694L63.04890007289648,120.78193720559463L63.13401705980301,77.41595894665923L63.16819789706468,21.83811976680956L63.20371915931702,35.34900927519699L63.54686795692444,15.858675844691177L63.64605940623284,102.15597230090032L63.919506104326246,121.79973948352854L64.0099847911954,174.6411727264523L64.11118687798977,-0.6748116014043072L64.56425052483081,152.38742037449197L64.61719731196165,192.46658551956756L65.50925014324189,177.70654044001225L65.66071816718578,176.48545488320238L65.80213300369978,199.8958938368564L66.53333483610153,139.62457913158073L66.58628162323237,23.503209528972818L67.05878143243788,110.13897163445972L67.57015356637238,143.73282656853783L67.78127050240039,-78.59711508421651L67.8436002644658,154.36399098886653L68.22629159929753,146.30076074230203L68.55737657198907,193.93730863670444L68.81875944516659,143.8111031508362L68.96888704411984,-4.766071394525706L68.99100405646563,42.71315287798219L69.09354656825066,38.955839344379164L69.10359975568056,156.31873511174197L69.34554646649362,-42.98811969176733L69.50505704038144,121.85390638989631L69.60961018965244,208.06711964661105L70.24296099773646,92.02640376893999L70.57270554543734,48.738692696482225L70.88569478075505,112.89061289465974L71.26838611558675,155.51963935237225L71.39170521472693,114.97784748530482L71.45001370182037,100.48034982372607L71.56998173848392,106.88368619697751L71.5920987508297,127.14638427694558L72.86483227945567,-26.54783878707135L72.8829280168295,182.08899550844154L72.89432162925006,149.91535175938702L73.23009808940888,175.222496851418L73.26159807668924,214.9014376177179L73.3426937886238,132.9367185157224L73.48209798765183,210.1626460490288L73.84334252263308,35.04879401201173L73.84736379760504,144.3997043389384L73.92242759708166,24.95663024228039L74.04172542124986,194.31377098491564L75.156959013474,203.62071662245947L75.4304057115674,107.64969927164279L76.07783098205327,179.841961497146L76.18372455631496,98.24336464267516L76.31374578040838,-36.79790871958098L77.00004337562322,223.61948140089694L77.27013901124,99.54028856631028L77.47723467229605,53.22927486959153L77.50538359709978,175.0197350405912L78.27210669175386,208.80406674992355L78.39877685337066,168.5099064354625L78.42893641566037,125.3426122011677L78.7097554512024,80.92212219280161L79.2734041597724,98.84737497673454L79.33841477181912,35.25711814869626L79.48049982082844,102.52022008219424L79.86989328061343,77.72867065138294L79.879276255548,106.19751880666838L80.06023362928629,147.87698483223176L80.23716972805262,204.76352089906067L80.3685313771367,176.351663094265L80.73513761208058,203.51954712301193L80.81422268652916,133.22908826861848L80.86515883617402,44.417554753977676L81.09303108458518,138.29481681457958L81.38256288256646,133.50159525654294L81.70292445533276,31.77414378805527L81.73710529259444,-27.827511983890975L81.75184996749162,54.44845777270851L81.77396697983743,14.325221530613351L81.7907222922206,-46.25506534274521L81.96497754100561,152.54060043945535L82.03467964051963,36.436801021566914L82.03669027800561,140.81455982394473L82.25048806401492,205.9996679564616L82.44216883767842,57.835143762758506L83.23167915717363,122.0893562609579L84.10295540109873,92.16042575548462L84.59288073518277,166.3558581637799L84.7698168339491,156.23389085077042L84.86632743327617,51.54939608563764L84.89782742055654,94.4643185757801L84.9762422825098,27.177952590215043L85.05398693196774,106.57002551436253L85.05867841943503,66.68959607094142L85.7208483648181,116.70727043183933L85.9266036008835,190.16449669684755L86.35218853541612,205.35085365136757L86.4037948975563,174.72231503406584L86.41317787249088,124.77569656725403L86.43931615980864,160.81350782088597L86.46076295965909,-51.29654327546512L86.85752875689269,69.37041163466266L87.1484009798646,112.58537086739697L87.19464564204216,172.01090198021683L87.389007265687,83.06876655776819L87.39973066561222,73.99437687850863L87.51366678981782,86.70703504303128L87.53846465214491,169.8140087661167L87.79515603785515,5.460339861447229L87.80789007526636,80.0258360640532L88.96132577972413,154.91672832933546L88.98411300456524,167.79441468873122L89.31720861474275,64.75510933750725L90.08259128440619,200.8725518159205L90.21127208350896,187.6148608839075L90.53833578122854,79.56211472894911L90.81915481677056,72.37275218292947L90.83993140412569,193.74544597789614L90.93845264093875,108.52039118478916L91.158282339406,109.76203949521324L91.67166511082648,64.2882497982875L91.72863317292928,112.29177026198845L91.82447355976105,170.13998736967673L92.08250537046194,199.91415931230807L92.2654733816862,33.309740349253985L92.58114346698522,121.07757670409627L92.94104757697583,113.14532419816781L93.03554753881693,100.17464740124873L93.39210058633088,129.30042315280747L93.40282398625612,95.2694464520428L93.81165360840558,86.83972282303574L93.85320678311587,213.1076697420363L93.98858970717191,37.96119776448454L94.70102558970451,3.296463561306587L94.91817443819046,-58.785933168255916L94.93358932558297,82.92649504064403L95.25059983587265,-13.096330865543303L95.65875924552678,3.0277242974850713L95.69830178275109,31.311023785476355L95.9248336061716,151.51076211519756L95.98984421821832,-81.85043679517125L96.15605691705942,131.74648413619934L96.44424829005003,83.14938269942222L96.86983322458268,-107.04856217955518L97.03604592342377,92.09796233943382L97.21901393464803,66.8073820793068L97.39595003341435,112.10544174157573L97.43348193315268,105.52361296238007L97.50251382017136,140.70852798728208L98.05275827883482,57.09792887855588L98.20958800274133,108.70560160253791L98.2531518149376,100.70611260364018L98.67270483701229,157.48889062241716L99.05472595934867,77.15781816859362L99.18206633346081,136.5735306487761L99.33353435740472,159.70365468749932L99.50913003118038,1.375732309385403L99.89852349096537,227.23951964503598L100.20078932635785,-89.21334014962329L100.27317227585316,80.85926415228116L100.45412964959144,161.75560797139488L100.92662945879698,-7.956290773621638L101.10691662003994,32.42905128287687L101.14645915726423,161.14311321123836L101.20007615689039,143.44037225325542L101.25034209403992,66.54397964164606L101.42660798031092,121.92995616268743L101.53652282954455,64.76473065790978L101.8206929275632,190.11047072779036L101.83409717746973,47.63652534443275L102.33139484900236,74.73617692321561L102.46208628559113,130.72949929466682L102.48286287294626,6.327198279745707L102.51972456018925,195.1149432206613L102.54318199752569,122.1343434504963L102.54988412247897,91.49860293662371L102.88901164511442,75.76907828502341L103.17720301810502,157.09686879511747L103.3977029290676,145.02823776503934L103.43657525379658,60.58109115561095L103.81323467617034,107.64597852664338L103.8320006260395,193.72927107255146L103.94526653774976,129.70030928203772L104.17380899865627,165.87951824146822L104.29176639783383,109.02412932027839L104.40168124706744,176.0551168990653L104.41106422200203,91.91946053766887L104.69389389503003,133.77313447493475L104.73209600726366,18.193894331219116L104.81453214418889,44.24880581410513L104.93248954336643,195.43643062192405L104.99951079289913,-18.251911644912006L105.78432962492705,73.87104733592696L106.28631878392697,68.52561460338093L106.72597818086147,173.69390017664495L106.7266483933568,112.4588561415961L106.76552071808577,88.2167930972896L107.11470142815112,191.68836257589533L107.38412685127258,87.51716149590936L107.51414807536601,-81.52316156835386L108.12069038363694,194.79805037572356L108.37202006938458,161.00335977406328L108.51745618087054,-38.05189374259151L109.04558362718821,96.15377170103298L109.17895591375827,-61.63219034296133L109.4604451617956,111.426123904561L109.63939189804793,146.00336422532843L109.74126419733763,112.77521342475359L109.90144498372078,74.67207863436201L110.1105512822628,183.79638995333178L110.6494021285057,57.04315124384223L110.92418925158978,-9.66435701969231L110.9322318015337,153.3192884762525L111.1735082998514,105.1624751977397L111.28141251159907,-6.736487746338097L111.70632723363639,-160.67272836008985L111.73179530845881,26.914775652251254L111.78005060812234,155.68493063022515L111.95698670688867,-110.1901112073961L112.02936965638399,123.38380908374742L112.35107165414095,159.78508826555472L112.47841202825308,187.4937581508331L112.55615667771102,156.699829599561L112.72303958904743,105.04744216484106L113.03200754939317,120.23570177305399L113.26457128527164,34.4725671197788L113.46831588385105,91.49178157079146L113.92204974318742,195.70906445342803L114.73501750001908,127.73440292416403L114.73568771251439,181.21029365814366L114.82884724936486,199.04320901409233L114.84895362422466,71.73143104484816L114.87643233653307,143.57425330248947L115.16596413451434,81.1533909236492L115.41394275778532,141.15884148623925L115.69342136833669,64.7231259638254L115.7014639182806,144.73549217931503L115.99233614125252,9.729500123808412L116.37100620111227,157.92324062199555L116.39312321345807,138.88105025586393L116.7490060484767,32.15576444183386L117.1263356833458,109.60667020402546L117.4815483058691,100.38084808245378L118.9908668453455,158.28640788390834L119.05453703240156,85.06930591076272L119.21605824377536,81.1298825802438L119.37288796768189,158.3882961636398L119.50156876678467,-50.16440325536478L119.57127086629869,136.92927521233148L120.06588768785001,213.2533730826732L120.18116423704625,156.2870242168606L120.24014293663501,100.54323605170863L120.30448333618641,122.80911371028954L120.33330247348547,88.81374716999906L120.58798322170973,116.24928994318635L120.68583424602747,13.692676089071073L121.76420615100861,-47.21000018433796L121.80039762575626,75.01733746200992L121.89556780009269,106.92236879082245L122.43173779635428,-28.733137558420758L122.59258879523277,180.58269041829251L122.86201421835423,165.67965034341876L123.22526939082145,175.22796521906866L123.32379062763454,42.183115840337976L123.5710990384102,171.7642804783363L123.57981180084944,205.985691673162L123.63677986295224,100.04683605219049L123.90687549856901,136.17110764795535L123.97791802307368,42.70589930439745L124.40149232012033,164.44157244486277L124.57373693141936,-33.72374651784059L124.79959854234457,125.01924563576384L124.8994602041483,-78.41566299475L125.11057714017629,153.70068363033414L125.11392820265294,124.36659313791158L125.34515151354074,117.07957982729864L125.36659831339121,143.64543604015506L125.70840668600798,133.09826086111374L125.79017261043788,31.609585384217425L125.97716189663412,60.26407616500407L126.62927865458727,188.66562370087664L126.84307644059658,177.84014901044586L126.940257252419,106.76061034155487L126.97108702720404,150.00151143525736L127.32361879974604,144.26980711768348L127.35042729955912,100.81679537155213L127.37053367441892,78.32466635038044L127.37723579937219,18.064664213234327L127.42817194901706,25.380005923274627L127.45095917385817,13.906600134896143L127.84303348362445,117.4074563866412L128.00321427000762,53.14347223490799L128.1593737814188,71.13693867716357L128.58227786597013,170.24420581294322L128.6064055158019,96.70342721231047L128.81216075186728,97.66976858023982L128.81283096436263,71.91047780421404L129.1841286867738,32.98829053127408L129.27862864861487,134.99688374691465L129.475671122241,166.2042378050537L129.58022427151204,109.12403508184101L129.88181989440918,88.41852136783879L129.96626666882037,65.04949919185505L130.1726921173811,102.1180131852497L130.2122346546054,78.22835918814806L130.2919899415493,-6.9372200598924945L131.16795767294167,67.80529340480696L131.22157467256784,135.4021536814092L131.5707553826332,78.66755743121054L131.8281169808388,116.36124114689356L132.36093591462372,92.02745610085901L132.82874423636198,163.4170709467658L132.89509527339936,36.19854180011434L132.98624417276383,130.3959852429009L133.0680100971937,156.58764350033618L133.10688242192268,216.10290000298414L133.15312708410025,142.1422926436735L133.15580793408154,57.364657436746405L133.66852049300672,155.06578362900905L133.8300417043805,114.88521408896834L133.9660948409319,102.59162831955678L134.04652034037113,89.18240159120391L134.55052013685702,40.972257634366144L134.62089244886639,86.12176937127958L134.74086048552988,120.73903588825286L134.75024346046447,106.92705730535455L134.77437111029624,138.37099812886055L134.80184982260465,158.9244874638462L134.8648497971654,86.21926040692087L134.89769020943643,108.6028676989429L135.0766369456887,139.0664767774889L135.73344519110918,91.58923502314991L135.89630682747364,148.47700194249123L136.42577469878196,65.08490264427374L136.4706789359689,163.1888464618268L136.51156189818383,113.84716381741387L137.16837014360428,142.17123177144674L137.52023170365098,139.87764616646533L137.7849656393051,49.78769849497941L137.87611453866958,-3.0189749092439735L138.50075258431434,187.5264368152471L138.76414609497786,151.90224838071703L138.77688013238907,-18.990291610882128L138.82111415708064,37.02792968543891L138.92901836882828,73.00309900242664L138.99000770590305,91.17653299447723L139.02217790567875,204.93194098520848L139.15152891727683,143.01987169339705L139.35527351585628,69.30172818530474L140.17025191017387,45.25859345697715L140.34785822143553,-2.6040930501675854L140.42426244590283,135.88600086446468L140.59650705720185,56.90086093507667L140.88000694272517,105.62647840746496L140.91351756749154,142.46960545377374L141.02879411668778,142.4200988744759L141.05359197901487,41.302614690374966L141.21913446536064,187.75891760696575L141.52140030075313,134.33191332811737L141.5401662506223,75.14848432741866L141.65879386229517,169.31624637259625L142.05153838455678,98.43982185780851L142.18021918365955,121.9698508174034L142.22311278336048,68.24287556670808L142.47578289409876,40.23528704150185L142.61384666813612,125.64850254005914L142.9536444032669,71.89369686843385L143.8423461720705,81.41684973623417L144.001186533463,-84.67639899715257L144.49580335501432,182.0796748543016L144.63185649156569,151.87040594434575L144.96562231423854,107.06073164653309L144.98103720163107,148.61194471946504L145.10971800073386,107.00540905421852L145.34898386156559,-92.13961213345758L145.40059022370576,138.21227452968088L145.59294120986462,142.07686954410042L145.7015156341076,156.63503601997525L145.86772833294867,205.05656715104755L146.1311218436122,138.5941582664392L146.22696223044395,177.8042334857987L146.5888769779205,-43.713740133219254L146.69410033968686,80.43359589103474L146.9930151126027,128.06961761947767L147.14783419902324,31.85594380311821L147.36163198503255,128.1353319894926L147.421951109612,98.80892727840723L147.57274892106057,86.6031736409516L147.77850415712595,143.23217965806074L148.25904651627542,171.5168979149786L148.53249321436883,148.2247053649045L148.5586315016866,75.81288160115291L148.56533362663984,105.08368184530255L148.9419930490136,188.93240393608107L149.06598236064912,-62.778875093513925L149.43862050805092,175.9699860655622L149.51971621998547,67.4545662095084L149.57400343210696,53.31581037829009L149.65509914404154,12.410635145433634L149.83002460532188,128.43596066878894L149.95669476693868,214.88406239627807L150.40506692631243,129.7920782628693L150.56122643772363,-19.23634936352036L150.91174757277966,38.152327549277814L150.98077945979836,51.151013287720275L151.52231115602257,119.22386584126812L151.6576940800786,142.3024350117797L151.8587578286767,53.691229790402964L152.19520450133084,-9.076779976047046L152.59733199852704,38.01276202851686L152.65899154809713,101.52724156256451L152.93712973365783,180.85756045512446L153.61002307896615,180.8975537659578L154.12608670036792,172.39058709493003L154.35999086123704,148.38051625966546L154.85192683280707,139.47383258418012L154.85460768278838,68.46871351318782L154.89146937003136,107.24507764877691L155.12939480587247,-11.036503883896435L155.245341567564,129.31516519549456L155.5476074029565,130.24816079573975L155.82574558851718,133.7272828698914L156.04892634946108,121.1331905668527L156.08511782420874,221.05680418881755L156.1219795114517,26.747210585787617L156.12533057392835,40.25565718079159L156.3096390101433,192.28621864739253L156.34113899742366,96.76135244696047L156.34247942241433,186.71574191521637L156.48523468391895,139.0887166850991L156.5602984833956,10.416090326049275L156.92958556832073,145.3232007644502L157.32903221553562,139.686422423465L157.538808726573,177.25392966289252L157.91211708647012,168.57438995296502L158.17349995964767,98.8877394224858L158.32563819608689,113.29976330310572L158.33435095852613,16.603257052327013L158.53005300716163,115.1889433890975L158.631255093956,141.9256156223817L158.65002104382515,149.19814997328731L158.7900954553485,120.71200411208285L158.90068051707743,-190.18710586021143L158.9341911418438,180.74935818387877L159.24248888969422,132.1648612405782L159.2920846143484,123.81514302487933L159.4723717755914,107.87149701521915L159.50320155037642,59.10874725940232L160.33560546957256,124.50488082705658L160.34967993197444,14.88887681474218L160.35437141944172,61.85828385576431L160.3965948066473,89.50454669991605L160.66602022976875,205.68142211334228L160.8060946412921,94.7959910466877L161.07753070189952,-45.308868614408645L161.14723280141354,179.7292351382306L162.33551955562828,106.05366879166567L163.0848171254039,145.86190074878496L163.35223191103935,16.08447620788812L163.94805081938506,109.23655003479054L164.40111446622612,40.40305881602102L164.4701463532448,78.1277111567497L164.6169228897214,180.5108311815361L165.20469924812318,94.1173872920466L165.35884812204839,78.74727157407683L165.39235874681475,57.00389550493425L165.62827354516983,88.01220849724591L166.34741155265567,98.14542260764001L166.48748596417906,86.94700430385225L166.78304967461827,176.52781594085357L166.78573052459956,93.28014450061217L167.05649637271165,124.13759819567474L167.0752623225808,50.85403018685775L167.32659200832845,113.59039482917129L167.3286026458144,30.590289170791344L167.69453866826296,76.39508423535459L167.73140035550594,146.79337422607585L168.49209153770207,161.91261213538544L168.74945313590766,163.49775285916476L168.8399318227768,167.7761116299967L169.1234317083001,170.13106134000643L169.20318699524404,140.37907293006097L169.3714103315711,-54.954993983603856L169.54298473037483,132.54115446401673L169.7185804041505,96.11325692215044L170.32110143744947,93.0907059635459L170.73864382203817,65.5121494033987L170.84520760879516,136.223874577038L171.19371810636522,88.78484562550865L171.64812217819693,152.73695430056094L172.2781219238043,35.04043173158374L172.6527707086921,128.42013810672069L172.78815363274813,161.23977741465757L173.13934498029946,176.45909960612317L173.19832367988823,150.0759545227078L173.2070364423275,175.70526821300268L173.4161427408695,205.92807650059527L173.54080226500034,96.7526707086285L173.86116383776667,54.53433557395768L174.2398338976264,-66.87906091630562L174.247206235075,190.71843200445645L174.3832593716264,136.70782511412125L174.46100402108434,169.11294899998921L175.08698249171974,-60.58015909019692L175.39192917709352,170.75088484031332L176.3322373080373,202.01169172244647L176.38384367017744,172.10481320816928L176.8469605044484,-18.296955209374655L176.9930668284297,134.483712207437L177.01652426576615,34.85693135320341L177.34492838847638,40.44710642348887L177.38648156318666,144.88182269098402L177.4233432504296,160.59708448675323L177.8274813851118,157.84098021171803L178.24502376970054,177.72340124026843L178.2919386443734,95.43183442129765L178.3113748067379,99.11075862275386L179.24967230019567,137.2648375530112L179.4165552115321,104.1242182181297L179.5278104857564,151.31286733949628L179.76439549660682,155.1898366497851L179.77981038399935,205.1548568314488L179.8803422582984,104.49469542855144L180.46945904169084,179.17730583834233L180.81662911427023,193.25304859799857L180.86421420143841,143.93511858832937L181.13498004955053,124.13810556999285L181.44059694741964,202.7482817845722L181.51834159687758,90.22721685366642L181.80854360735415,159.89116708132093L182.26294767918586,164.51565849112643L182.32728807873727,162.65836782060947L183.32791533426047,138.25896236276702L184.20455327814818,106.79357088059011L184.44515956397058,-36.669881266646506L185.1441911965966,71.28900063946297L185.2098720211387,69.70557935087275L185.2179145710826,111.04911659874888L185.37742514497043,143.49796863418072L185.92431854115725,148.622064018365L185.98396745324135,69.50293028989442L186.2956162635684,28.17233108712991L186.29695668855905,84.17743581774594L186.43368003760577,165.245854697262L186.70980758568047,186.31042030370793L186.71181822316646,-25.585443663838355L186.95510535897014,129.40343893102363L186.9886159837365,-4.385578239231817L187.18364781987665,47.998226858315434L187.286860544157,70.54616705447839L187.3733179560542,84.12478163851176L187.51272215508223,94.53982339097028L187.61727530435326,94.02329754350075L187.82236032792332,192.47623032952185L187.90814752732516,83.05136549782142L188.34512607427834,23.942107105772724L189.04013643193247,139.03182499072668L189.11654065639974,114.33216668641613L189.12860448131562,158.05542102768192L189.29146611768007,166.66627728825148L189.98513605034353,134.86409261288244L189.98647647533417,72.85107462341006L189.99518923777342,93.82645509971846L190.0937104745865,68.15243139659599L190.21233808625934,48.22143397499762L190.29812528566123,187.22860339261075L190.33498697290423,88.01247158022566L190.48578478435277,167.8378233803911L190.64730599572658,85.06808445407098L190.95493353108168,182.21550553633205L191.0501037054181,109.38901601738029L191.1546568546891,189.60811377794485L191.21765682924985,109.16398611148122L191.80610340014698,151.88399230108604L192.0721777607918,93.1868815842884L192.1753904850721,0.5621857777704835L192.2879861842871,31.882909808543275L192.62376264444592,125.51115443298471L192.65191156924965,72.49339452078935L193.05269864145515,112.04792992303678L193.22561346524952,122.1163880371279L193.43337933880093,138.3383382560879L193.56675162537098,63.81306556192257L193.91794297292233,103.9540317176892L193.99970889735224,89.84927936160445L194.42462361938954,119.18709999484712L194.98089999051095,165.88929929082275L195.12566588950156,187.25072585246204L195.3877189751744,199.28951105806888L195.45339979971646,72.72954907840385L195.74494223518371,123.17351182471474L195.9305910963893,152.8673307086718L196.75495246564148,154.08123316055227L196.82264392766953,161.48116544440506L197.50156918543578,121.89591510427104L197.64566487193107,-91.17375934820492L198.19121784312725,138.89668490151806L198.41640924155712,125.37363720113757L199.01222814990282,-133.4201879867855L199.4780258341551,-63.37524662533965L199.5182385838747,140.2665109980079L199.91902565608024,125.6143393359736L200.01486604291202,137.6282397104416L200.07451495499612,165.47992338267983L200.36672760295866,162.96519774157144L200.4196743900895,13.919585159111266L200.8465997496128,39.0816305919857L201.0798336979866,143.14508979594055L201.09323794789316,118.54588221079358L201.2259400219679,-0.45639635328200256L201.64616325653793,142.70386205560567L201.78891851804255,-147.43168682236717L201.86465253001452,55.465668113937966L201.94775887943504,95.83888956172628L202.19975877767803,29.90475130046949L202.26745023970605,145.04782805121053L202.2761630021453,152.90370193062319L202.44840761344432,-44.65768186458646L202.6313756246686,-26.98598469821482L202.79624789851906,55.51319217506688L203.04958822175266,174.90490871574806L203.10253500888348,94.1940947722871L203.20842858314515,50.648148963556686L203.36860936952831,155.8768308723163L203.9416410530329,182.56622333580992L204.02742825243473,71.85290021493014L204.14739628909825,57.86440234843575L204.20704520118235,142.88448731285013L204.49188551169632,70.43292862333452L204.68557692284585,186.27756311870047L204.7244492475748,1.3036287812906462L205.0816725075841,128.42224277055874L205.39600216789245,170.70950564592584L205.57427869164943,21.75231713212604L205.71837437814472,182.98558700136286L206.46700173542501,136.55054847133022L206.5641825472474,170.35372349908766L206.66002293407917,145.56798068547243L206.6975548338175,162.8848728703593L206.80612925806045,174.60429882809316L207.0681823437333,67.72922484037444L207.170054643023,169.1618072676583L207.1774269804716,193.1753827440461L207.58893745260238,78.27531950003464L207.77458631380796,108.26020211780974L207.78933098870516,25.942721625332897L207.87109691313506,7.074804941648725L207.90728838788272,88.08837101988549L208.12175638638735,115.55847162162796L208.40458605941532,67.32144622175149L209.324117603004,100.76317342278527L209.44944733963013,109.82081035372676L209.45950052706004,140.600147195443L209.50708561422826,-128.8366811468978L209.67798980053664,73.16010316641717L209.6846919254899,-45.300769416960435L209.9775747859478,173.50300058945896L210.41120227042438,161.46865960704594L210.588808581686,165.9167444831038L211.0432126535177,68.24159773509211L211.0901275281906,102.04679286430127L211.29923382673263,199.35367041975707L211.34614870140553,-47.06829241645613L211.51973373769522,123.84471167263985L211.58206349976064,-65.72841112941529L211.87025487275122,177.11260712365964L211.99424418438673,133.39330842291093L212.1302973209381,74.62058953689534L212.22814834525587,-56.55463245873193L212.41647805644274,126.92511269932875L212.51164823077917,55.929802865153114L212.54314821805954,165.41618213501306L212.56459501791002,-32.119936298319224L212.88830765315294,152.3038727367778L212.8923289281249,160.08540688276776L212.99755228989125,156.40745045084424L212.9988927148819,87.94822295824079L213.05854162696602,139.26137428638515L213.32059471263884,117.39453713317101L213.58800949827432,-137.0222449790492L213.6074456606388,217.69660031942627L213.92646680841446,149.57633175668764L213.98008380804063,189.26123417122523L214.13825395693777,143.1975184754778L214.41036023004054,173.99120743332185L214.41304108002186,63.591267818346225L214.69654096554518,185.4751976137252L214.86543451436756,148.57096014954723L215.04505146311521,179.9916557126276L215.17306204972266,12.229540097153931L215.26220031160116,120.20605795872781L215.28230668646097,115.95704233595943L215.51084914736748,163.52641950813754L215.85734900745155,94.41395697679809L216.03897659368516,154.4790522092273L216.31175307928325,202.10312245373268L216.43708281590938,113.10743085326213L216.83921031310558,139.3422159277361L217.0034123744607,177.4763851139183L217.61062489522695,188.79369813291467L218.0884864043951,164.9325698474752L218.09049704188106,198.5776507960403L218.17159275381564,95.01604116761283L218.4209118020773,172.9053089448241L219.00332646051643,136.07071330371605L219.45370925737618,111.09804063716294L219.87192185446023,112.35569003024864L219.89135801682474,141.98845487126073L220.0770068780303,159.50915180307274L220.3303472012639,127.53768262605092L220.41881525064707,21.123135394396375L220.53208116235734,67.02944290586291L220.81625126037596,158.69364154493036L220.82228317283392,204.7233443697235L220.83568742274045,89.94188457047882L221.09640008342268,76.71112206060808L221.47372971829176,165.94299640615526L221.58431478002072,106.18568946840004L221.77599555368423,57.51852339662126L222.02598481444122,23.938329985849066L222.1995698507309,-154.95089905007757L222.31082512495516,99.17948905121531L222.6640271099925,22.676790722991246L222.94618657052516,64.71902938599776L223.2524736808896,96.49915267435006L223.6539309655905,162.1377641869537L224.0540478253007,102.46183445232964L224.3321860108614,101.65431064178702L224.38245194801092,47.880196558611715L224.44478171007634,140.06922695065248L224.88109004453423,85.8530864823823L225.3328132663846,-10.147358578884306L225.34822815377714,171.37200496387757L225.51310042762756,131.396452231633L225.6625578140855,172.02443196203288L225.95208961206674,81.10661852817674L225.95745131202938,150.89527948405666L226.12031294839383,-21.55907140850985L227.04118491697312,148.08368349193418L227.159812528646,190.02603988292987L227.1846103909731,131.16762641416886L227.37092946467402,89.30409626098282L227.44599326415062,123.00485684304925L227.77439738686087,52.75640200512018L227.83404629894497,-32.41909922958546L227.86219522374867,151.49564423968226L228.41914180736543,162.25119053451164L228.47208859449626,-87.7561611080335L229.72136468578577,118.1080369659127L229.89427950958014,20.499008608206314L230.1040560206175,175.8153543462998L230.43648141829968,100.72302508091026L230.5537686049819,41.994015552817125L230.70456641643048,111.57538591229013L231.49675758590698,86.80924278066678L231.60734264763593,162.81382167418357L232.35060830495357,24.99834768621324L232.48398059152365,171.6616217413069L232.68772519010304,121.2350788465842L232.73732091475725,85.40945341194679L232.7641294145703,7.025157425040353L233.45243764727115,107.27163023809095L233.46919295965432,138.47634407061173L233.5107461343646,38.98752205179844L233.93365021891594,170.5899344316264L234.0167565683365,58.07836397754362L234.22921392935515,7.584340298513316L234.27143731656076,171.70648678517614L235.05290508611202,136.01333302666694L235.1018305982709,68.58894243493665L235.13266037305593,174.8500747061102L235.23989437230827,196.75106096967886L235.2633518096447,125.55478862434151L235.4175006835699,75.51302337915445L235.57433040747642,191.92356815561854L235.80019201840162,175.1747425926818L236.20365994058847,85.30192763979191L236.24588332779408,-14.227099095820614L236.62924487512112,207.30402867218518L237.27063823314907,91.46774706142654L237.44221263195277,126.93178373202973L237.64796786801813,-94.14392860637572L238.12918043966295,73.17797401739922L238.4341271250367,128.7014113953635L238.7464461478591,151.78117383510468L238.93477585904597,-17.739332042138802L239.4468182054758,129.9493267181982L239.63313727917674,161.5915005669509L240.01917967648507,88.66269995633587L240.2115306626439,81.64928354884925L240.28458382463455,64.99237260196502L240.46956247334478,156.25525694705496L240.5091050105691,37.89721222547942L240.61231773484946,92.07967807234073L240.6511900595784,192.5054842172887L241.10693455640077,88.59905266687616L241.11832816882134,-7.2932464980690055L241.22020046811105,36.06125006796416L241.23896641798018,188.82760295193083L241.34754084222317,-40.44972597830155L241.47354079134462,165.00748272596095L241.52715779097082,142.5439357913757L242.37497659755945,94.45496033835732L242.62362543332577,139.6948034955344L242.73421049505473,91.89228782418827L243.01033804312945,87.81301709828723L243.12293374234437,115.72159246489787L243.16448691705466,207.58166577821493L243.5129974146247,112.03725627071522L243.61889098888636,183.82401366620624L243.78041220026017,143.85792252541216L243.81794409999847,115.8014005659712L243.89434832446577,94.73794366636852L243.92182703677418,-50.783644214787955L244.15238013516665,128.8463325339266L244.48011404538155,126.39221933219005L244.5089331826806,-16.1743829370558L244.74082670606373,201.59109720438113L244.86414580520392,161.63078449332102L245.0223159541011,105.10484123353156L245.42913493876458,100.4932972646584L245.6536561246991,144.0357008489828L245.83059222346543,124.27494630274919L246.08125169671774,119.72999051521658L246.43512389425038,193.47368125980742L246.44115580670834,42.14712984703555L246.59128340566158,188.94491447135056L246.64221955530644,74.74957536354178L246.87612371617556,160.10079723708353L246.9123151909232,196.7008919850213L247.19313422646522,-12.43634962754069L247.38280436264276,168.70342275871502L247.5999532111287,199.59876510077294L247.93908073376417,130.6020731742575L247.98733603342774,181.91667145879052L248.16762319467068,222.13990037378983L248.2406763566613,156.49440877147453L248.32110185610054,50.52904754029251" fill="none"></path></g></g></g></g></g></g><g transform="translate(61, 176)" clip-path="url(#clip_1)"><clipPath id="clip_1"><rect width="268" height="23"></rect></clipPath><g><g><line x1="0" y1="0" x2="0" y2="5" style="visibility: inherit;" fill="rgb(0, 0, 0)" stroke="rgb(204, 204, 204)" stroke-width="1px"></line><line x1="33.51062476634979" y1="0" x2="33.51062476634979" y2="5" style="visibility: inherit;" fill="rgb(0, 0, 0)" stroke="rgb(204, 204, 204)" stroke-width="1px"></line><line x1="67.02124953269958" y1="0" x2="67.02124953269958" y2="5" style="visibility: inherit;" fill="rgb(0, 0, 0)" stroke="rgb(204, 204, 204)" stroke-width="1px"></line><line x1="100.53187429904938" y1="0" x2="100.53187429904938" y2="5" style="visibility: inherit;" fill="rgb(0, 0, 0)" stroke="rgb(204, 204, 204)" stroke-width="1px"></line><line x1="134.04249906539917" y1="0" x2="134.04249906539917" y2="5" style="visibility: inherit;" fill="rgb(0, 0, 0)" stroke="rgb(204, 204, 204)" stroke-width="1px"></line><line x1="167.55312383174896" y1="0" x2="167.55312383174896" y2="5" style="visibility: inherit;" fill="rgb(0, 0, 0)" stroke="rgb(204, 204, 204)" stroke-width="1px"></line><line x1="201.06374859809875" y1="0" x2="201.06374859809875" y2="5" style="visibility: inherit;" fill="rgb(0, 0, 0)" stroke="rgb(204, 204, 204)" stroke-width="1px"></line><line x1="234.57437336444855" y1="0" x2="234.57437336444855" y2="5" style="visibility: inherit;" fill="rgb(0, 0, 0)" stroke="rgb(204, 204, 204)" stroke-width="1px"></line><line x1="268.08499813079834" y1="0" x2="268.08499813079834" y2="5" style="visibility: inherit;" fill="rgb(0, 0, 0)" stroke="rgb(204, 204, 204)" stroke-width="1px"></line></g><g transform="translate(0, 8)"><text style="text-anchor: middle; visibility: hidden; font-family: Roboto, sans-serif; font-size: 12px; font-weight: 200;" x="0" y="0" dx="0em" dy="0.95em" fill="rgb(33, 33, 33)" stroke="none" stroke-width="1px">-50k</text><text style="text-anchor: middle; visibility: inherit; font-family: Roboto, sans-serif; font-size: 12px; font-weight: 200;" x="33.51062476634979" y="0" dx="0em" dy="0.95em" fill="rgb(33, 33, 33)" stroke="none" stroke-width="1px">0</text><text style="text-anchor: middle; visibility: inherit; font-family: Roboto, sans-serif; font-size: 12px; font-weight: 200;" x="67.02124953269958" y="0" dx="0em" dy="0.95em" fill="rgb(33, 33, 33)" stroke="none" stroke-width="1px">50k</text><text style="text-anchor: middle; visibility: inherit; font-family: Roboto, sans-serif; font-size: 12px; font-weight: 200;" x="100.53187429904938" y="0" dx="0em" dy="0.95em" fill="rgb(33, 33, 33)" stroke="none" stroke-width="1px">100k</text><text style="text-anchor: middle; visibility: inherit; font-family: Roboto, sans-serif; font-size: 12px; font-weight: 200;" x="134.04249906539917" y="0" dx="0em" dy="0.95em" fill="rgb(33, 33, 33)" stroke="none" stroke-width="1px">150k</text><text style="text-anchor: middle; visibility: inherit; font-family: Roboto, sans-serif; font-size: 12px; font-weight: 200;" x="167.55312383174896" y="0" dx="0em" dy="0.95em" fill="rgb(33, 33, 33)" stroke="none" stroke-width="1px">200k</text><text style="text-anchor: middle; visibility: inherit; font-family: Roboto, sans-serif; font-size: 12px; font-weight: 200;" x="201.06374859809875" y="0" dx="0em" dy="0.95em" fill="rgb(33, 33, 33)" stroke="none" stroke-width="1px">250k</text><text style="text-anchor: middle; visibility: inherit; font-family: Roboto, sans-serif; font-size: 12px; font-weight: 200;" x="234.57437336444855" y="0" dx="0em" dy="0.95em" fill="rgb(33, 33, 33)" stroke="none" stroke-width="1px">300k</text><text style="text-anchor: middle; visibility: hidden; font-family: Roboto, sans-serif; font-size: 12px; font-weight: 200;" x="268.08499813079834" y="0" dx="0em" dy="0.95em" fill="rgb(33, 33, 33)" stroke="none" stroke-width="1px">350k</text></g><line x1="0" y1="0" x2="268.08499813079834" y2="0" fill="rgb(0, 0, 0)" stroke="rgb(204, 204, 204)" stroke-width="1px"></line></g></g></g></g></svg>