<svg viewBox="0 0 695.7999877929688 400" xmlns="http://www.w3.org/2000/svg"><g><g><g><g><g><line x1="49.98400115966797" y1="377.60799980163574" x2="44.98400115966797" y2="377.60799980163574" style="visibility: inherit;" fill="rgb(0, 0, 0)" stroke="rgb(204, 204, 204)" stroke-width="1px"></line><line x1="49.98400115966797" y1="346.14066648483276" x2="44.98400115966797" y2="346.14066648483276" style="visibility: inherit;" fill="rgb(0, 0, 0)" stroke="rgb(204, 204, 204)" stroke-width="1px"></line><line x1="49.98400115966797" y1="314.6733331680298" x2="44.98400115966797" y2="314.6733331680298" style="visibility: inherit;" fill="rgb(0, 0, 0)" stroke="rgb(204, 204, 204)" stroke-width="1px"></line><line x1="49.98400115966797" y1="283.2059998512268" x2="44.98400115966797" y2="283.2059998512268" style="visibility: inherit;" fill="rgb(0, 0, 0)" stroke="rgb(204, 204, 204)" stroke-width="1px"></line><line x1="49.98400115966797" y1="251.73866653442386" x2="44.98400115966797" y2="251.73866653442386" style="visibility: inherit;" fill="rgb(0, 0, 0)" stroke="rgb(204, 204, 204)" stroke-width="1px"></line><line x1="49.98400115966797" y1="220.27133321762082" x2="44.98400115966797" y2="220.27133321762082" style="visibility: inherit;" fill="rgb(0, 0, 0)" stroke="rgb(204, 204, 204)" stroke-width="1px"></line><line x1="49.98400115966797" y1="188.8039999008179" x2="44.98400115966797" y2="188.8039999008179" style="visibility: inherit;" fill="rgb(0, 0, 0)" stroke="rgb(204, 204, 204)" stroke-width="1px"></line><line x1="49.98400115966797" y1="157.3366665840149" x2="44.98400115966797" y2="157.3366665840149" style="visibility: inherit;" fill="rgb(0, 0, 0)" stroke="rgb(204, 204, 204)" stroke-width="1px"></line><line x1="49.98400115966797" y1="125.86933326721189" x2="44.98400115966797" y2="125.86933326721189" style="visibility: inherit;" fill="rgb(0, 0, 0)" stroke="rgb(204, 204, 204)" stroke-width="1px"></line><line x1="49.98400115966797" y1="94.4019999504089" x2="44.98400115966797" y2="94.4019999504089" style="visibility: inherit;" fill="rgb(0, 0, 0)" stroke="rgb(204, 204, 204)" stroke-width="1px"></line><line x1="49.98400115966797" y1="62.93466663360603" x2="44.98400115966797" y2="62.93466663360603" style="visibility: inherit;" fill="rgb(0, 0, 0)" stroke="rgb(204, 204, 204)" stroke-width="1px"></line><line x1="49.98400115966797" y1="31.467333316802993" x2="44.98400115966797" y2="31.467333316802993" style="visibility: inherit;" fill="rgb(0, 0, 0)" stroke="rgb(204, 204, 204)" stroke-width="1px"></line><line x1="49.98400115966797" y1="0" x2="44.98400115966797" y2="0" style="visibility: inherit;" fill="rgb(0, 0, 0)" stroke="rgb(204, 204, 204)" stroke-width="1px"></line></g><g transform="translate(39.98400115966797, 0)"><text style="text-anchor: end; visibility: hidden; font-family: Roboto, sans-serif; font-size: 12px; font-weight: 200;" x="0" y="377.60799980163574" dx="0em" dy="0.3em" fill="rgb(33, 33, 33)" stroke="none" stroke-width="1px">0.65</text><text style="text-anchor: end; visibility: inherit; font-family: Roboto, sans-serif; font-size: 12px; font-weight: 200;" x="0" y="346.14066648483276" dx="0em" dy="0.3em" fill="rgb(33, 33, 33)" stroke="none" stroke-width="1px">0.7</text><text style="text-anchor: end; visibility: inherit; font-family: Roboto, sans-serif; font-size: 12px; font-weight: 200;" x="0" y="314.6733331680298" dx="0em" dy="0.3em" fill="rgb(33, 33, 33)" stroke="none" stroke-width="1px">0.75</text><text style="text-anchor: end; visibility: inherit; font-family: Roboto, sans-serif; font-size: 12px; font-weight: 200;" x="0" y="283.2059998512268" dx="0em" dy="0.3em" fill="rgb(33, 33, 33)" stroke="none" stroke-width="1px">0.8</text><text style="text-anchor: end; visibility: inherit; font-family: Roboto, sans-serif; font-size: 12px; font-weight: 200;" x="0" y="251.73866653442386" dx="0em" dy="0.3em" fill="rgb(33, 33, 33)" stroke="none" stroke-width="1px">0.85</text><text style="text-anchor: end; visibility: inherit; font-family: Roboto, sans-serif; font-size: 12px; font-weight: 200;" x="0" y="220.27133321762082" dx="0em" dy="0.3em" fill="rgb(33, 33, 33)" stroke="none" stroke-width="1px">0.9</text><text style="text-anchor: end; visibility: inherit; font-family: Roboto, sans-serif; font-size: 12px; font-weight: 200;" x="0" y="188.8039999008179" dx="0em" dy="0.3em" fill="rgb(33, 33, 33)" stroke="none" stroke-width="1px">0.95</text><text style="text-anchor: end; visibility: inherit; font-family: Roboto, sans-serif; font-size: 12px; font-weight: 200;" x="0" y="157.3366665840149" dx="0em" dy="0.3em" fill="rgb(33, 33, 33)" stroke="none" stroke-width="1px">1</text><text style="text-anchor: end; visibility: inherit; font-family: Roboto, sans-serif; font-size: 12px; font-weight: 200;" x="0" y="125.86933326721189" dx="0em" dy="0.3em" fill="rgb(33, 33, 33)" stroke="none" stroke-width="1px">1.05</text><text style="text-anchor: end; visibility: inherit; font-family: Roboto, sans-serif; font-size: 12px; font-weight: 200;" x="0" y="94.4019999504089" dx="0em" dy="0.3em" fill="rgb(33, 33, 33)" stroke="none" stroke-width="1px">1.1</text><text style="text-anchor: end; visibility: inherit; font-family: Roboto, sans-serif; font-size: 12px; font-weight: 200;" x="0" y="62.93466663360603" dx="0em" dy="0.3em" fill="rgb(33, 33, 33)" stroke="none" stroke-width="1px">1.15</text><text style="text-anchor: end; visibility: inherit; font-family: Roboto, sans-serif; font-size: 12px; font-weight: 200;" x="0" y="31.467333316802993" dx="0em" dy="0.3em" fill="rgb(33, 33, 33)" stroke="none" stroke-width="1px">1.2</text><text style="text-anchor: end; visibility: hidden; font-family: Roboto, sans-serif; font-size: 12px; font-weight: 200;" x="0" y="0" dx="0em" dy="0.3em" fill="rgb(33, 33, 33)" stroke="none" stroke-width="1px">1.25</text></g><line x1="49.98400115966797" y1="0" x2="49.98400115966797" y2="377.60799980163574" fill="rgb(0, 0, 0)" stroke="rgb(204, 204, 204)" stroke-width="1px"></line></g></g><g transform="translate(49, 0)" clip-path="url(#clip_0)"><clipPath id="clip_0"><rect width="645" height="377"></rect></clipPath><g><g><g><line x1="0" y1="0" x2="0" y2="377.60799980163574" fill="rgb(0, 0, 0)" stroke="rgb(66, 66, 66)" stroke-width="1px" opacity="0.25"></line><line x1="64.5815998840332" y1="0" x2="64.5815998840332" y2="377.60799980163574" fill="rgb(0, 0, 0)" stroke="rgb(66, 66, 66)" stroke-width="1px" opacity="0.25"></line><line x1="129.1631997680664" y1="0" x2="129.1631997680664" y2="377.60799980163574" fill="rgb(0, 0, 0)" stroke="rgb(66, 66, 66)" stroke-width="1px" opacity="0.25"></line><line x1="193.7447996520996" y1="0" x2="193.7447996520996" y2="377.60799980163574" fill="rgb(0, 0, 0)" stroke="rgb(66, 66, 66)" stroke-width="1px" opacity="0.25"></line><line x1="258.3263995361328" y1="0" x2="258.3263995361328" y2="377.60799980163574" fill="rgb(0, 0, 0)" stroke="rgb(66, 66, 66)" stroke-width="1px" opacity="0.25"></line><line x1="322.907999420166" y1="0" x2="322.907999420166" y2="377.60799980163574" fill="rgb(0, 0, 0)" stroke="rgb(66, 66, 66)" stroke-width="1px" opacity="0.25"></line><line x1="387.4895993041992" y1="0" x2="387.4895993041992" y2="377.60799980163574" fill="rgb(0, 0, 0)" stroke="rgb(66, 66, 66)" stroke-width="1px" opacity="0.25"></line><line x1="452.07119918823236" y1="0" x2="452.07119918823236" y2="377.60799980163574" fill="rgb(0, 0, 0)" stroke="rgb(66, 66, 66)" stroke-width="1px" opacity="0.25"></line><line x1="516.6527990722656" y1="0" x2="516.6527990722656" y2="377.60799980163574" fill="rgb(0, 0, 0)" stroke="rgb(66, 66, 66)" stroke-width="1px" opacity="0.25"></line><line x1="581.2343989562988" y1="0" x2="581.2343989562988" y2="377.60799980163574" fill="rgb(0, 0, 0)" stroke="rgb(66, 66, 66)" stroke-width="1px" opacity="0.25"></line><line x1="645.815998840332" y1="0" x2="645.815998840332" y2="377.60799980163574" fill="rgb(0, 0, 0)" stroke="rgb(66, 66, 66)" stroke-width="1px" opacity="0.25"></line></g><g><line x1="0" y1="377.60799980163574" x2="645.815998840332" y2="377.60799980163574" fill="rgb(0, 0, 0)" stroke="rgb(66, 66, 66)" stroke-width="1px" opacity="0.25"></line><line x1="0" y1="346.14066648483276" x2="645.815998840332" y2="346.14066648483276" fill="rgb(0, 0, 0)" stroke="rgb(66, 66, 66)" stroke-width="1px" opacity="0.25"></line><line x1="0" y1="314.6733331680298" x2="645.815998840332" y2="314.6733331680298" fill="rgb(0, 0, 0)" stroke="rgb(66, 66, 66)" stroke-width="1px" opacity="0.25"></line><line x1="0" y1="283.2059998512268" x2="645.815998840332" y2="283.2059998512268" fill="rgb(0, 0, 0)" stroke="rgb(66, 66, 66)" stroke-width="1px" opacity="0.25"></line><line x1="0" y1="251.73866653442386" x2="645.815998840332" y2="251.73866653442386" fill="rgb(0, 0, 0)" stroke="rgb(66, 66, 66)" stroke-width="1px" opacity="0.25"></line><line x1="0" y1="220.27133321762082" x2="645.815998840332" y2="220.27133321762082" fill="rgb(0, 0, 0)" stroke="rgb(66, 66, 66)" stroke-width="1px" opacity="0.25"></line><line x1="0" y1="188.8039999008179" x2="645.815998840332" y2="188.8039999008179" fill="rgb(0, 0, 0)" stroke="rgb(66, 66, 66)" stroke-width="1px" opacity="0.25"></line><line x1="0" y1="157.3366665840149" x2="645.815998840332" y2="157.3366665840149" fill="rgb(0, 0, 0)" stroke="rgb(66, 66, 66)" stroke-width="1px" opacity="0.25"></line><line x1="0" y1="125.86933326721189" x2="645.815998840332" y2="125.86933326721189" fill="rgb(0, 0, 0)" stroke="rgb(66, 66, 66)" stroke-width="1px" opacity="0.25"></line><line x1="0" y1="94.4019999504089" x2="645.815998840332" y2="94.4019999504089" fill="rgb(0, 0, 0)" stroke="rgb(66, 66, 66)" stroke-width="1px" opacity="0.25"></line><line x1="0" y1="62.93466663360603" x2="645.815998840332" y2="62.93466663360603" fill="rgb(0, 0, 0)" stroke="rgb(66, 66, 66)" stroke-width="1px" opacity="0.25"></line><line x1="0" y1="31.467333316802993" x2="645.815998840332" y2="31.467333316802993" fill="rgb(0, 0, 0)" stroke="rgb(66, 66, 66)" stroke-width="1px" opacity="0.25"></line><line x1="0" y1="0" x2="645.815998840332" y2="0" fill="rgb(0, 0, 0)" stroke="rgb(66, 66, 66)" stroke-width="1px" opacity="0.25"></line></g></g></g><g><g><line x1="0" y1="786.6833329200745" x2="645.815998840332" y2="786.6833329200745" fill="rgb(0, 0, 0)" stroke="rgb(153, 153, 153)" stroke-width="1.5px"></line></g></g><g><g><line x1="64.5815998840332" y1="0" x2="64.5815998840332" y2="377.60799980163574" fill="rgb(0, 0, 0)" stroke="rgb(153, 153, 153)" stroke-width="1.5px"></line></g></g><g><g><g><g><g><path style="fill: none;" stroke="rgb(255, 112, 67)" stroke-width="2px" d="M64.5815998840332,-435.6445315583847L65.87323188171386,31.164286185523125L67.16486387939452,164.14729272677633L68.45649587707518,179.12950910870882L69.74812787475585,150.27702694546667L71.03975987243652,140.64539354844572L72.33139187011719,195.72856145897677L73.62302386779785,185.262105783431L74.91465586547851,211.8982134514054L76.20628786315918,218.5317341798281L77.49791986083983,224.7635801923585L78.7895518585205,216.43436032273453L80.08118385620116,205.16804584239796L81.37281585388183,241.4434639579262L82.6644478515625,140.11112952328045L83.95607984924317,152.13260901371603L85.24771184692382,-92.9840607232713L87.83097584228516,-48.54861702718497L89.12260783996582,42.03280065334606L90.41423983764649,73.8064999100899L91.70587183532713,114.80414949943952L92.9975038330078,126.37828007327225L94.28913583068847,163.95427632184067L95.58076782836913,121.45416921100917L96.8723998260498,160.0335238871585L98.16403182373045,174.26879311631072L99.45566382141112,172.22762794921366L100.74729581909179,80.0583758018674L102.03892781677246,127.58260518150207L103.33055981445312,125.99543007324803L104.62219181213378,153.52114568728877L105.91382380981445,128.09967347342257L107.20545580749511,122.15123381129938L108.49708780517578,80.73851902295935L109.78871980285645,87.75005943615514L111.08035180053709,101.25638470732467L112.37198379821776,95.30200840025569L113.66361579589842,-97.99087042163288L114.95524779357909,-18.800324631662942L116.24687979125976,27.929312077636418L117.53851178894041,67.79381253497608L118.83014378662108,20.16767532903273L120.12177578430175,54.04470568199732L121.41340778198241,44.7366962184858L122.70503977966308,93.97978219124683L123.99667177734375,45.11278710194391L125.2883037750244,53.24101423139472L126.57993577270507,56.28892616448655L127.87156777038574,51.476971724814504L129.1631997680664,-956.1237510803085L134.32972775878903,-81.44669958222775L135.6213597564697,22.732725559794492L136.91299175415037,81.16204768190934L138.20462375183104,138.0866671252244L139.4962557495117,145.36146106217802L140.78788774719237,172.0244213105459L142.07951974487304,-361.02304383744064L143.3711517425537,-129.2089218137178L144.66278374023437,19.658040473580233L145.95441573791504,86.83364800507987L147.2460477355957,113.16186704639749L148.53767973327638,131.11099606438205L149.82931173095702,123.1403563032395L151.12094372863768,144.85334730102826L152.41257572631835,126.20932325306016L153.70420772399902,155.38635931023947L154.99583972167966,9.550590754334984L156.28747171936033,82.98463597736617L157.579103717041,100.00552440494039L158.87073571472166,148.1720681694296L160.16236771240233,96.93803789259984L161.453999710083,136.85852477144942L162.74563170776366,122.0520240756191L164.03726370544433,163.86055909189986L165.328895703125,64.11993024289964L166.62052770080567,106.0126163210139L167.91215969848633,128.34755319645524L169.20379169616697,169.9110428051711L170.49542369384764,168.4318616676292L171.7870556915283,186.04524872956358L173.07868768920898,-39.638877872689584L174.37031968688964,61.78775188667712L175.6619516845703,82.62642484439412L176.95358368225098,118.29650507074419L178.24521567993165,133.73647341607423L179.53684767761231,181.71397778353273L180.82847967529298,-126.73605635178097L182.1201116729736,18.482880280676643L183.41174367065426,-10.565610370785778L184.70337566833493,113.72662296781775L185.9950076660156,125.30430621302239L187.28663966369626,181.6519190015747L188.57827166137693,196.45001312817413L189.8699036590576,227.16114467175626L191.16153565673827,216.32500959025992L192.45316765441893,232.88418112012673L193.7447996520996,218.35858410233143L195.03643164978024,214.41047395223745L196.3280636474609,97.20118815894367L197.61969564514158,158.87992997955948L198.91132764282224,204.4882529806949L200.2029596405029,242.57918354904194L201.49459163818358,243.57186236427003L202.78622363586425,257.12589466586377L204.0778556335449,261.0394311802695L205.36948763122558,273.1019716924753L206.66111962890625,160.99367689249502L207.95275162658692,220.42923883678748L209.24438362426756,220.23947214099599L210.53601562194822,252.23036408553014L211.8276476196289,246.4166645155939L213.11927961730956,256.16864480876563L214.41091161499023,258.5997003062082L215.7025436126709,281.2214548882137L216.99417561035156,235.54408806265144L218.28580760803223,258.7834685019781L219.5774396057129,214.75682617822397L220.86907160339356,247.45300618870982L222.16070360107418,270.69848320999716L223.45233559875484,289.0200269290675L224.7439675964355,174.88560694646128L226.03559959411618,232.84705121285276L227.32723159179685,245.53929208302068L228.6188635894775,272.8995347887441L229.91049558715818,268.18459436339066L231.20212758483885,284.7160754651855L232.49375958251952,256.23372053446366L233.78539158020018,284.15013622861204L235.07702357788082,-158.29982145238782L236.3686555755615,22.45902701163787L237.66028757324216,134.12168578770653L238.95191957092283,192.2533385245122L240.2435515686035,242.27591830421423L241.53518356628416,275.2170965037622L242.82681556396483,281.38022793459845L244.1184475616455,291.97485019386556L245.41007955932616,303.0601142276364L246.70171155700683,308.33698358421356L247.9933435546875,286.0935372418678L249.28497555236817,288.5406150974653L250.5766075500488,249.0901439256851L251.86823954772947,282.0964785081362L253.15987154541014,112.581089761837L254.4515035430908,200.02858910740864L255.74313554077148,247.5609016808304L257.0347675384521,281.5389881931285L258.3263995361328,276.6447731982758L259.61803153381345,293.35423078429034L260.9096635314941,295.07251625608285L262.2012955291748,311.87103502194896L263.49292752685545,116.96380637819072L264.7845595245361,196.29837720802863L266.0761915222168,242.48467781405054L267.36782351989746,262.760397473524L268.65945551757807,289.1981640551193L269.95108751525873,310.64023653840235L271.2427195129394,-26.598702737413664L272.53435151062007,115.73527267186435L273.82598350830074,36.00832233751904L275.1176155059814,156.14379642860706L276.4092475036621,198.00229017819677L277.70087950134274,255.11904045179406L278.9925114990234,289.8403297797499L280.2841434967041,311.44936137871474L281.57577549438474,276.6608537115428L282.8674074920654,298.01039858195895L284.1590394897461,232.30048971870983L285.45067148742675,272.284009472685L286.7423034851074,201.1497755965753L288.0339354827881,248.1486414270693L289.32556748046875,264.7379567120915L290.6171994781494,285.5060409437487L291.9088314758301,302.6138461114715L293.20046347351075,309.79552424063104L294.4920954711914,185.4738056296431L295.7837274688721,203.83268113152138L297.07535946655275,249.31905939051268L298.36699146423337,282.50735017312195L299.65862346191403,302.48056888977453L300.9502554595947,318.4519490468223L302.24188745727537,192.4177296328456L303.53351945495604,250.5723170255641L304.8251514526367,278.4233497427823L306.11678345031737,301.0536906307101L307.40841544799804,317.23233096169935L308.70004744567865,330.16252986266835L309.9916794433593,28.617951868681924L311.28331144104,149.05930742887887L312.57494343872065,200.05188462097968L313.8665754364013,258.68087217867264L315.158207434082,290.2080035123937L316.44983943176265,311.6930129815701L317.7414714294433,251.90562906362598L319.033103427124,289.37894152113665L320.32473542480466,298.20724622032554L321.6163674224853,312.93603235227204L322.907999420166,-70.89815830894922L324.19963141784666,86.69673376016634L325.4912634155273,187.77091115773766L326.782895413208,247.29119842598274L328.07452741088866,280.325945391735L329.36615940856933,304.15019259404653L330.65779140625,309.057831946035L331.94942340393067,316.2543089701277L333.24105540161133,303.1218600776817L334.532687399292,322.0798899000087L335.82431939697267,332.02002443469456L337.11595139465334,291.3340361940732L338.40758339233395,240.4999916930697L339.6992153900146,283.5795476366785L340.9908473876953,307.7579228691794L342.28247938537595,323.57381617141925L343.5741113830566,316.6882605692122L344.8657433807373,329.93130804859925L346.15737537841795,334.8068556298955L347.4490073760986,340.3252376183587L348.7406393737793,328.27539425487237L350.03227137145996,336.5665969862818L351.3239033691406,339.14898431203795L352.6155353668213,342.73401204810466L353.90716736450196,320.83941149421344L355.1987993621826,332.98524855307727L356.4904313598633,336.85471878106637L357.78206335754396,343.89384806783727L359.07369535522463,343.40655562316107L360.3653273529053,347.12086522905685L361.65695935058596,347.1329728627823L362.94859134826663,347.3778233479679L364.2402233459472,346.44794462196757L365.53185534362785,348.5731145936167L366.8234873413085,284.95363878228926L368.1151193389892,313.5842705824955L369.40675133666986,302.4362398213391L370.6983833343505,318.3310614815531L371.9900153320312,300.2511663493491L373.28164732971186,151.92212122387295L374.5732793273925,227.7126212928561L375.8649113250732,273.74855076599346L377.15654332275386,285.5855455309216L378.44817532043453,303.2240785831503L379.7398073181152,224.15763679318613L381.03143931579586,272.5941427079147L382.32307131347653,293.9309782193264L383.6147033111572,318.1694932800329L384.90633530883787,320.41984997592203L386.19796730651854,333.3093806231613L387.4895993041992,321.18970116395025L388.78123130187987,330.3841241894854L390.0728632995605,334.86328654264395L391.36449529724115,342.24473359743354L392.6561272949218,339.7271625524927L393.9477592926025,35.17383253347791L395.23939129028315,-46.730572651919985L396.5310232879638,109.0593169495703L397.8226552856445,203.20006374671493L399.11428728332515,262.37076003894805L400.4059192810058,251.92462797715334L401.6975512786865,293.06561506140395L402.98918327636716,311.14590734225374L404.2808152740478,325.5162779966178L405.5724472717285,325.51479525142736L406.86407926940916,334.06053111639693L408.1557112670898,299.0043996174329L409.4473432647705,321.30881155470144L410.73897526245116,276.2399393783249L412.03060726013183,308.2353823884174L413.3222392578125,313.00018224918125L414.61387125549317,328.5791060190752L415.90550325317383,318.9904555260841L417.1971352508545,333.2350392037397L418.4887672485351,333.66742199789593L419.7803992462158,339.32427106477587L421.07203124389645,341.6031191965018L422.3636632415771,349.2582319297196L423.6552952392578,340.37408381173077L424.94692723693845,345.4678303197668L426.2385592346191,346.7568286162053L427.5301912322998,350.11136722748074L428.82182322998045,305.9127616033792L430.1134552276611,325.6714432706783L431.4050872253418,318.91308552999146L432.69671922302246,334.6077105840414L433.9883512207031,309.16357810622503L435.2799832183838,328.3773345112021L436.57161521606446,338.4438813618531L437.8632472137451,345.8267535216912L439.1548792114258,344.24642670135137L440.44651120910646,344.12410946441884L441.73814320678713,344.60010464227L443.0297752044678,349.03638782773294L444.32140720214835,320.86678760241557L445.613039199829,332.46763860204015L446.9046711975097,310.0419807843805L448.19630319519035,325.6236229691967L449.487935192871,340.1687233569187L450.7795671905517,345.3628748809281L452.07119918823236,327.16472610405157L453.362831185913,336.87190654195444L454.6544631835937,298.3698782391221L455.94609518127436,317.6760347445524L457.237727178955,323.8559622296491L458.5293591766357,330.63717057621454L459.82099117431636,340.420771396861L461.11262317199703,347.862368938607L462.4042551696777,285.57962762606576L463.69588716735836,308.86546630906554L464.98751916503903,325.3612859981759L466.2791511627197,338.4849435207145L467.57078316040037,335.2079354008337L468.86241515808103,343.2507682586327L470.15404715576165,338.7636226660858L471.4456791534423,346.709373996172L472.737311151123,349.59573381531794L474.02894314880365,353.4858842606618L475.3205751464843,355.05746091679305L476.612207144165,357.3600663002071L477.90383914184565,328.45640387821146L479.1954711395263,336.9840314261743L480.487103137207,341.1211850447762L481.77873513488765,345.1292546777772L483.0703671325683,284.444385289688L484.361999130249,310.55441811592425L485.65363112792966,329.83414733487604L486.9452631256103,341.65610605395943L488.236895123291,320.7395026027918L489.52852712097166,337.48529006211686L490.8201591186523,343.5749780879885L492.111791116333,349.12947814311354L493.40342311401366,327.88195518253457L494.69505511169433,339.8582205832624L495.986687109375,332.1364020876821L497.27831910705567,342.2421298105383L498.56995110473633,326.99685364651896L499.86158310241694,338.11432217920196L501.1532151000976,341.9238092563287L502.4448470977783,348.83097799146924L503.73647909545895,350.4912506245827L505.0281110931396,352.56399315444924L506.3197430908203,349.25899545258557L507.61137508850095,351.5786814713631L508.9030070861816,331.8302691144208L510.1946390838623,342.9571621509339L511.48627108154295,344.9117845237459L512.7779030792236,351.3621040401909L514.0695350769042,347.89598691506745L515.361167074585,352.7526126772026L516.6527990722656,333.7467450902734L517.9444310699463,341.7577771815477L519.2360630676269,348.73536502654395L520.5276950653076,352.3655249748287L521.8193270629882,332.6183461642356L523.110959060669,342.65741154831755L524.4025910583496,350.08232852880866L525.6942230560302,355.32923173360416L526.9858550537109,338.74555965304796L528.2774870513915,348.99776575594086L529.5691190490722,329.30991921023946L530.8607510467529,338.6660643975884L532.1523830444336,344.5931416332005L533.4440150421142,349.0008950176409L534.7356470397949,191.4650068915275L536.0272790374755,253.8180079557816L537.3189110351561,294.7317023941836L538.6105430328369,319.1932213586772L539.9021750305175,321.2898435333446L541.1938070281982,335.7384410345798L542.4854390258788,340.59168541092936L543.7770710235595,348.8012545435946L545.0687030212401,346.82588622743395L546.3603350189209,351.8317031767359L547.6519670166015,352.4239830026333L548.9435990142822,356.6405644950305L550.2352310119628,348.76252820331956L551.5268630096435,351.3205038061851L552.8184950073241,333.866002390211L554.1101270050049,344.47997339978093L555.4017590026855,348.14864849154253L556.6933910003662,352.9545056918884L557.9850229980468,345.4452646906486L559.2766549957275,349.97994329866947L560.5682869934082,353.0351172884101L561.8599189910889,356.8234963616829L563.1515509887695,349.56571886375383L564.4431829864502,352.78265137148634L565.7348149841308,348.0933860742799L567.0264469818114,353.12349282353733L568.3180789794922,334.61892073022324L569.6097109771728,340.17624010154043L570.9013429748535,345.02712121881154L572.1929749725341,351.33706094740376L573.4846069702148,355.5167055593589L574.7762389678954,357.8868533530503L576.0678709655762,271.8590831783129L577.3595029632568,307.53689027988156L578.6511349609375,316.6924154886876L579.9427669586181,329.76352660029863L581.2343989562988,323.28495785837606L582.5260309539794,338.1273704103243L583.8176629516602,250.75770956247743L585.1092949493408,293.04893236996134L586.4009269470215,264.44770158492213L587.6925589447021,301.3251374585023L588.9841909423828,299.3280168785601L590.2758229400634,323.86599685739185L591.5674549377442,336.4484410385948L592.8590869354248,347.17809856820094" fill="none"></path></g></g></g></g><g opacity="0.2"><g><g><g><path style="fill: none;" stroke="rgb(255, 112, 67)" stroke-width="2px" d="M64.5815998840332,-435.6445315583847L65.87323188171386,311.2495768318678L67.16486387939452,291.8109790063795L68.45649587707518,196.74859557386128L69.74812787475585,112.60722623313767L71.03975987243652,127.32137717234309L72.33139187011719,274.4983729017224L73.62302386779785,170.00191293051103L74.91465586547851,251.18129846411424L76.20628786315918,228.3817393644961L77.49791986083983,234.05482682648426L78.7895518585205,203.98585776501082L80.08118385620116,188.30536059342194L81.37281585388183,295.785523810772L82.6644478515625,-11.768259773430174L83.95607984924317,170.15634977064622L85.24771184692382,-460.55534016893046L86.53934384460449,139.24433636979984L87.83097584228516,-121.2392590315028L89.12260783996582,177.8966476737736L90.41423983764649,121.46530625002471L91.70587183532713,176.2992748383408L92.9975038330078,143.73924742300346L94.28913583068847,220.3178255711947L95.58076782836913,57.70431061733346L96.8723998260498,217.90239137805773L98.16403182373045,195.6216605358867L99.45566382141112,169.16588333223729L100.74729581909179,-58.19541751824434L102.03892781677246,198.86892298503483L103.33055981445312,123.6146679371916L104.62219181213378,194.80971363165395L105.91382380981445,89.96746818743644L107.20545580749511,113.22857474418926L108.49708780517578,18.61944862023391L109.78871980285645,98.26736987514893L111.08035180053709,121.5158724051139L112.37198379821776,86.37044399492652L113.66361579589842,-387.9301875778652L114.95524779357909,99.98549378864709L116.24687979125976,98.02376704788685L117.53851178894041,127.59056317302566L118.83014378662108,-51.271530445503714L120.12177578430175,104.8602511967715L121.41340778198241,30.77468202563749L122.70503977966308,167.84441114271033L123.99667177734375,-28.18770552743902L125.2883037750244,65.4333549251146L126.57993577270507,60.860794064021775L127.87156777038574,44.2590400654035L129.1631997680664,-2467.5248352757762L130.45483176574706,176.61790163457795L131.74646376342773,80.85535701159985L133.0380957611084,222.50728756977878L134.32972775878903,-94.59442142603618L135.6213597564697,179.0018632727299L136.91299175415037,168.80603086504834L138.20462375183104,223.47359629017777L139.4962557495117,156.27365196760707L140.78788774719237,212.01886168309443L142.07951974487304,-1160.5942415593813L143.3711517425537,218.51226122185608L144.66278374023437,242.95848390452363L145.95441573791504,187.59705930232826L147.2460477355957,152.65419560837358L148.53767973327638,158.03468959135898L149.82931173095702,111.1843966615254L151.12094372863768,177.42283379771152L152.41257572631835,98.24328718110793L153.70420772399902,199.1519133960088L154.99583972167966,-209.2030620795219L156.28747171936033,193.13570381191315L157.579103717041,125.53685704630199L158.87073571472166,220.42188381616313L160.16236771240233,20.086992477355352L161.453999710083,196.73925508972388L162.74563170776366,99.84227303187366L164.03726370544433,226.57336161632088L165.328895703125,-85.49101303060073L166.62052770080567,168.8516454381852L167.91215969848633,161.8499585096174L169.20379169616697,232.2562772182448L170.49542369384764,166.2130899613163L171.7870556915283,212.46532932246512L173.07868768920898,-378.1650677760696L174.37031968688964,213.92769652572724L175.6619516845703,113.88443428096936L176.95358368225098,171.8016254102696L178.24521567993165,156.89642593406916L179.53684767761231,253.68023433472047L180.82847967529298,-589.4111075547518L182.1201116729736,236.31128522936308L183.41174367065426,-54.13834634797922L184.70337566833493,300.164972975723L185.9950076660156,142.67083108082943L187.28663966369626,266.1733381844033L188.57827166137693,218.6471543180733L189.8699036590576,273.2278419871295L191.16153565673827,200.07080696801552L192.45316765441893,257.72293841492683L193.7447996520996,196.57018857563858L195.03643164978024,208.48830872709644L196.3280636474609,-78.61274053099689L197.61969564514158,251.39804271048322L198.91132764282224,272.9007374823982L200.2029596405029,299.7155794015623L201.49459163818358,245.06088058711214L202.78622363586425,277.45694311825446L204.0778556335449,266.90973595187813L205.36948763122558,291.1957824607839L206.66111962890625,-7.168765307475269L207.95275162658692,309.5825817532261L209.24438362426756,219.95482209730883L210.53601562194822,300.2167020023313L211.8276476196289,237.69611516068952L213.11927961730956,270.79661524852327L214.41091161499023,262.246283552372L215.7025436126709,315.15408676122206L216.99417561035156,167.02803782430806L218.28580760803223,293.642539160968L219.5774396057129,148.7168626925927L220.86907160339356,296.49727620443855L222.16070360107418,305.56669874192835L223.45233559875484,316.5023425076731L224.7439675964355,3.6839769725520455L226.03559959411618,319.7892176124401L227.32723159179685,264.57765338827244L228.6188635894775,313.93989884732946L229.91049558715818,261.1121837253603L231.20212758483885,309.51329711787764L232.49375958251952,213.51018813838095L233.78539158020018,326.0247597698344L235.07702357788082,-821.9747579738874L236.3686555755615,293.59729970767603L237.66028757324216,301.6156739518095L238.95191957092283,279.4508176297205L240.2435515686035,317.30978797376736L241.53518356628416,324.6288638030842L242.82681556396483,290.62492508085256L244.1184475616455,307.8667835827662L245.41007955932616,319.6880102782927L246.70171155700683,316.2522876190792L247.9933435546875,252.7283677283492L249.28497555236817,292.21123188086153L250.5766075500488,189.91443716801484L251.86823954772947,331.6059803818126L253.15987154541014,-141.69199335761164L254.4515035430908,331.19983812576606L255.74313554077148,318.859370540963L257.0347675384521,332.50611796157557L258.3263995361328,269.30345070599685L259.61803153381345,318.41841716331203L260.9096635314941,297.6499444637716L262.2012955291748,337.0688131707482L263.49292752685545,-175.39703658744654L264.7845595245361,315.3002334527855L266.0761915222168,311.76412872308333L267.36782351989746,293.1739769627342L268.65945551757807,328.85481392751217L269.95108751525873,342.80334526332695L271.2427195129394,-532.457111651138L272.53435151062007,329.23623578578145L273.82598350830074,-83.58210316399888L275.1176155059814,336.347007565239L276.4092475036621,260.7900308025813L277.70087950134274,340.79416586218997L278.9925114990234,341.9222637716837L280.2841434967041,343.8629087771619L281.57577549438474,224.47809221078504L282.8674074920654,330.03471588758316L284.1590394897461,133.73562642383604L285.45067148742675,332.2592891036476L286.7423034851074,94.4484247824107L288.0339354827881,318.6469401728101L289.32556748046875,289.6219296396248L290.6171994781494,316.65816729123435L291.9088314758301,328.2755538630556L293.20046347351075,320.56804143437034L294.4920954711914,-1.0087722868388482L295.7837274688721,231.37099438433893L297.07535946655275,317.5486267789995L298.36699146423337,332.28978634703594L299.65862346191403,332.4403969647534L300.9502554595947,342.40901928239396L302.24188745727537,3.3664005118805562L303.53351945495604,337.80419811464185L304.8251514526367,320.19989881860965L306.11678345031737,334.9992019626018L307.40841544799804,341.50029145818337L308.70004744567865,349.55782821412186L309.9916794433593,-423.69891512229754L311.28331144104,329.7213407691743L312.57494343872065,276.54075040913085L313.8665754364013,346.62435351521196L315.158207434082,337.49870051297535L316.44983943176265,343.9205271853348L317.7414714294433,162.22455318670995L319.033103427124,345.5889102074025L320.32473542480466,311.4497032691088L321.6163674224853,335.0292115501918L322.907999420166,-646.6494443007809L324.19963141784666,323.08907186383976L325.4912634155273,339.3821772540946L326.782895413208,336.57162932835035L328.07452741088866,329.8780658403632L329.36615940856933,339.886563397514L330.65779140625,316.4192909740177L331.94942340393067,327.0490245062666L333.24105540161133,283.42318673901275L334.532687399292,350.5169346334992L335.82431939697267,346.93022623672334L337.11595139465334,230.30505383314107L338.40758339233395,164.24892494156438L339.6992153900146,348.19888155209185L340.9908473876953,344.0254857179309L342.28247938537595,347.29765612477877L343.5741113830566,306.3599271659018L344.8657433807373,349.79587926767977L346.15737537841795,342.1201770018399L347.4490073760986,348.60281060105365L348.7406393737793,310.2006292096428L350.03227137145996,349.00340108339606L351.3239033691406,343.0225653006721L352.6155353668213,348.11155365220486L353.90716736450196,287.9975106633765L355.1987993621826,351.20400414137293L356.4904313598633,342.6589241230499L357.78206335754396,354.45254199799365L359.07369535522463,342.6756169561469L360.3653273529053,352.69232963790046L361.65695935058596,347.15113431337045L362.94859134826663,347.7450990757461L364.2402233459472,345.053126532967L365.53185534362785,351.7608695510904L366.8234873413085,189.52442506529795L368.1151193389892,356.53021828280487L369.40675133666986,285.7141936796046L370.6983833343505,342.1732939718743L371.9900153320312,273.1313236510431L373.28164732971186,-70.57144646434156L374.5732793273925,341.39837139633073L375.8649113250732,342.80244497569925L377.15654332275386,303.3410376783138L378.44817532043453,329.6818781614934L379.7398073181152,105.55797410823969L381.03143931579586,345.24890158000744L382.32307131347653,325.93623148644383L383.6147033111572,354.5272658710928L384.90633530883787,323.7953850197556L386.19796730651854,352.6436765940201L387.4895993041992,303.0101819751337L388.78123130187987,344.175758727788L390.0728632995605,341.5820300723817L391.36449529724115,353.31690417961795L392.6561272949218,335.9508059850816L393.9477592926025,-421.6561624950442L395.23939129028315,-169.58718043001682L396.5310232879638,342.7441513518056L397.8226552856445,344.41118394243176L399.11428728332515,351.1268044772976L400.4059192810058,236.25542988446117L401.6975512786865,354.7770956877798L402.98918327636716,338.2663457635283L404.2808152740478,347.0718339781638L405.5724472717285,325.5125711336416L406.86407926940916,346.8791349138513L408.1557112670898,246.42020236898702L409.4473432647705,354.7654294606042L410.73897526245116,208.63663111376016L412.03060726013183,356.2285469035561L413.3222392578125,320.1473820403271L414.61387125549317,351.9474916739159L415.90550325317383,304.60747978659754L417.1971352508545,354.601914720223L418.4887672485351,334.31599618913026L419.7803992462158,347.8095446650957L421.07203124389645,345.02139139409053L422.3636632415771,360.7409010295464L423.6552952392578,327.0478616347475L424.94692723693845,353.1084500818207L426.2385592346191,348.6903260608631L427.5301912322998,355.1431751443937L428.82182322998045,239.61485316722704L430.1134552276611,355.30946577162695L431.4050872253418,308.77554891896125L432.69671922302246,358.14964816511633L433.9883512207031,270.99737938950057L435.2799832183838,357.1979691186675L436.57161521606446,353.5437016378296L437.8632472137451,356.90106176144866L439.1548792114258,341.87593647084157L440.44651120910646,343.9406336090201L441.73814320678713,345.3140974090468L443.0297752044678,355.69081260592725L444.32140720214835,278.6123872644396L445.613039199829,349.868915101477L446.9046711975097,276.40349405789095L448.19630319519035,348.996086246421L449.487935192871,361.98637393850163L450.7795671905517,353.15410216694204L452.07119918823236,299.86750293873683L453.362831185913,351.43267719880896L454.6544631835937,240.61683578487362L455.94609518127436,346.63526950269784L457.237727178955,333.12585345729417L458.5293591766357,340.80898309606255L459.82099117431636,355.0961726278308L461.11262317199703,359.0247652512261L462.4042551696777,192.1555156572538L463.69588716735836,343.79422433356524L464.98751916503903,350.10501553184156L466.2791511627197,358.1704298045224L467.57078316040037,330.29242322101254L468.86241515808103,355.3150175453311L470.15404715576165,332.0329042772653L471.4456791534423,358.6280009913014L472.737311151123,353.9252735440368L474.02894314880365,359.32110992867763L475.3205751464843,357.41482590098997L476.612207144165,360.81397437532814L477.90383914184565,285.10091024521785L479.1954711395263,349.77547274811855L480.487103137207,347.32691547267905L481.77873513488765,351.14135912727875L483.0703671325683,193.41708120755413L484.361999130249,349.71946735527865L485.65363112792966,358.75374116330363L486.9452631256103,359.38904413258456L488.236895123291,289.3645974260403L489.52852712097166,362.60397125110444L490.8201591186523,352.70951012679575L492.111791116333,357.46122822580105L493.40342311401366,296.0106707416662L494.69505511169433,357.822618684354L495.986687109375,320.5536743443116L497.27831910705567,357.40072139482265L498.56995110473633,304.12893940049L499.86158310241694,354.79052497822636L501.1532151000976,347.6380398720187L502.4448470977783,359.1917310941801L503.73647909545895,352.98165957425283L505.0281110931396,355.67310694924913L506.3197430908203,344.3014988997902L507.61137508850095,355.0582104995294L508.9030070861816,302.20765057900735L510.1946390838623,359.6475017057037L511.48627108154295,347.84371808296385L512.7779030792236,361.03758331485835L514.0695350769042,342.69681122738234L515.361167074585,360.0375513204051L516.6527990722656,305.2379437098796L517.9444310699463,353.774325318459L519.2360630676269,359.2017467940383L520.5276950653076,357.8107648972559L521.8193270629882,302.9975779483459L523.110959060669,357.7160096244404L524.4025910583496,361.21970399954535L525.6942230560302,363.19958654079755L526.9858550537109,313.87005153221367L528.2774870513915,364.3760749102802L529.5691190490722,299.7781493916875L530.8607510467529,352.7002821786118L532.1523830444336,353.4837574866185L533.4440150421142,355.61252509430176L534.7356470397949,-44.83882529764287L536.0272790374755,347.3475095521627L537.3189110351561,356.10224405178656L538.6105430328369,355.88549980541757L539.9021750305175,324.43477679534567L541.1938070281982,357.4113372864326L542.4854390258788,347.8715519754536L543.7770710235595,361.11560824259243L545.0687030212401,343.86283375319294L546.3603350189209,359.3404286006887L547.6519670166015,353.31240274147945L548.9435990142822,362.96543673362635L550.2352310119628,336.94547376575315L551.5268630096435,355.15746721048345L552.8184950073241,307.6842502662498L554.1101270050049,360.4009299141359L555.4017590026855,353.65166112918473L556.6933910003662,360.1632914924073L557.9850229980468,334.181403188789L559.2766549957275,356.78196121070073L560.5682869934082,357.617878273021L561.8599189910889,362.50606497159197L563.1515509887695,338.6790526168602L564.4431829864502,357.60805013308527L565.7348149841308,341.0594881284703L567.0264469818114,360.6686529474234L568.3180789794922,306.862062590252L569.6097109771728,348.51221915851625L570.9013429748535,352.30344289471816L572.1929749725341,360.80197054029213L573.4846069702148,361.78617247729164L574.7762389678954,361.44207504358747L576.0678709655762,142.81742791620673L577.3595029632568,361.05360093223453L578.6511349609375,330.42570330189676L579.9427669586181,349.3701932677152L581.2343989562988,313.5671047454923L582.5260309539794,360.3909892382467L583.8176629516602,119.70321829070714L585.1092949493408,356.48576658118714L586.4009269470215,221.54585540736323L587.6925589447021,356.64129126887246L588.9841909423828,296.33233600864685L590.2758229400634,360.6729668256395L591.5674549377442,355.32210731039925L592.8590869354248,363.2725848626103" fill="none"></path></g></g></g></g></g></g><g transform="translate(49, 377)" clip-path="url(#clip_1)"><clipPath id="clip_1"><rect width="645" height="22"></rect></clipPath><g><g><line x1="0" y1="0" x2="0" y2="5" style="visibility: inherit;" fill="rgb(0, 0, 0)" stroke="rgb(204, 204, 204)" stroke-width="1px"></line><line x1="64.5815998840332" y1="0" x2="64.5815998840332" y2="5" style="visibility: inherit;" fill="rgb(0, 0, 0)" stroke="rgb(204, 204, 204)" stroke-width="1px"></line><line x1="129.1631997680664" y1="0" x2="129.1631997680664" y2="5" style="visibility: inherit;" fill="rgb(0, 0, 0)" stroke="rgb(204, 204, 204)" stroke-width="1px"></line><line x1="193.7447996520996" y1="0" x2="193.7447996520996" y2="5" style="visibility: inherit;" fill="rgb(0, 0, 0)" stroke="rgb(204, 204, 204)" stroke-width="1px"></line><line x1="258.3263995361328" y1="0" x2="258.3263995361328" y2="5" style="visibility: inherit;" fill="rgb(0, 0, 0)" stroke="rgb(204, 204, 204)" stroke-width="1px"></line><line x1="322.907999420166" y1="0" x2="322.907999420166" y2="5" style="visibility: inherit;" fill="rgb(0, 0, 0)" stroke="rgb(204, 204, 204)" stroke-width="1px"></line><line x1="387.4895993041992" y1="0" x2="387.4895993041992" y2="5" style="visibility: inherit;" fill="rgb(0, 0, 0)" stroke="rgb(204, 204, 204)" stroke-width="1px"></line><line x1="452.07119918823236" y1="0" x2="452.07119918823236" y2="5" style="visibility: inherit;" fill="rgb(0, 0, 0)" stroke="rgb(204, 204, 204)" stroke-width="1px"></line><line x1="516.6527990722656" y1="0" x2="516.6527990722656" y2="5" style="visibility: inherit;" fill="rgb(0, 0, 0)" stroke="rgb(204, 204, 204)" stroke-width="1px"></line><line x1="581.2343989562988" y1="0" x2="581.2343989562988" y2="5" style="visibility: inherit;" fill="rgb(0, 0, 0)" stroke="rgb(204, 204, 204)" stroke-width="1px"></line><line x1="645.815998840332" y1="0" x2="645.815998840332" y2="5" style="visibility: inherit;" fill="rgb(0, 0, 0)" stroke="rgb(204, 204, 204)" stroke-width="1px"></line></g><g transform="translate(0, 8)"><text style="text-anchor: middle; visibility: hidden; font-family: Roboto, sans-serif; font-size: 12px; font-weight: 200;" x="0" y="0" dx="0em" dy="0.95em" fill="rgb(33, 33, 33)" stroke="none" stroke-width="1px">-5k</text><text style="text-anchor: middle; visibility: inherit; font-family: Roboto, sans-serif; font-size: 12px; font-weight: 200;" x="64.5815998840332" y="0" dx="0em" dy="0.95em" fill="rgb(33, 33, 33)" stroke="none" stroke-width="1px">0</text><text style="text-anchor: middle; visibility: inherit; font-family: Roboto, sans-serif; font-size: 12px; font-weight: 200;" x="129.1631997680664" y="0" dx="0em" dy="0.95em" fill="rgb(33, 33, 33)" stroke="none" stroke-width="1px">5k</text><text style="text-anchor: middle; visibility: inherit; font-family: Roboto, sans-serif; font-size: 12px; font-weight: 200;" x="193.7447996520996" y="0" dx="0em" dy="0.95em" fill="rgb(33, 33, 33)" stroke="none" stroke-width="1px">10k</text><text style="text-anchor: middle; visibility: inherit; font-family: Roboto, sans-serif; font-size: 12px; font-weight: 200;" x="258.3263995361328" y="0" dx="0em" dy="0.95em" fill="rgb(33, 33, 33)" stroke="none" stroke-width="1px">15k</text><text style="text-anchor: middle; visibility: inherit; font-family: Roboto, sans-serif; font-size: 12px; font-weight: 200;" x="322.907999420166" y="0" dx="0em" dy="0.95em" fill="rgb(33, 33, 33)" stroke="none" stroke-width="1px">20k</text><text style="text-anchor: middle; visibility: inherit; font-family: Roboto, sans-serif; font-size: 12px; font-weight: 200;" x="387.4895993041992" y="0" dx="0em" dy="0.95em" fill="rgb(33, 33, 33)" stroke="none" stroke-width="1px">25k</text><text style="text-anchor: middle; visibility: inherit; font-family: Roboto, sans-serif; font-size: 12px; font-weight: 200;" x="452.07119918823236" y="0" dx="0em" dy="0.95em" fill="rgb(33, 33, 33)" stroke="none" stroke-width="1px">30k</text><text style="text-anchor: middle; visibility: inherit; font-family: Roboto, sans-serif; font-size: 12px; font-weight: 200;" x="516.6527990722656" y="0" dx="0em" dy="0.95em" fill="rgb(33, 33, 33)" stroke="none" stroke-width="1px">35k</text><text style="text-anchor: middle; visibility: inherit; font-family: Roboto, sans-serif; font-size: 12px; font-weight: 200;" x="581.2343989562988" y="0" dx="0em" dy="0.95em" fill="rgb(33, 33, 33)" stroke="none" stroke-width="1px">40k</text><text style="text-anchor: middle; visibility: hidden; font-family: Roboto, sans-serif; font-size: 12px; font-weight: 200;" x="645.815998840332" y="0" dx="0em" dy="0.95em" fill="rgb(33, 33, 33)" stroke="none" stroke-width="1px">45k</text></g><line x1="0" y1="0" x2="645.815998840332" y2="0" fill="rgb(0, 0, 0)" stroke="rgb(204, 204, 204)" stroke-width="1px"></line></g></g></g></g></svg>