<svg viewBox="0 0 695.7999877929688 400" xmlns="http://www.w3.org/2000/svg"><g><g><g><g><g><line x1="39.98800086975098" y1="377.60799980163574" x2="34.98800086975098" y2="377.60799980163574" style="visibility: inherit;" fill="rgb(0, 0, 0)" stroke="rgb(204, 204, 204)" stroke-width="1px"></line><line x1="39.98800086975098" y1="348.5612305861253" x2="34.98800086975098" y2="348.5612305861253" style="visibility: inherit;" fill="rgb(0, 0, 0)" stroke="rgb(204, 204, 204)" stroke-width="1px"></line><line x1="39.98800086975098" y1="319.51446137061487" x2="34.98800086975098" y2="319.51446137061487" style="visibility: inherit;" fill="rgb(0, 0, 0)" stroke="rgb(204, 204, 204)" stroke-width="1px"></line><line x1="39.98800086975098" y1="290.4676921551044" x2="34.98800086975098" y2="290.4676921551044" style="visibility: inherit;" fill="rgb(0, 0, 0)" stroke="rgb(204, 204, 204)" stroke-width="1px"></line><line x1="39.98800086975098" y1="261.420922939594" x2="34.98800086975098" y2="261.420922939594" style="visibility: inherit;" fill="rgb(0, 0, 0)" stroke="rgb(204, 204, 204)" stroke-width="1px"></line><line x1="39.98800086975098" y1="232.3741537240835" x2="34.98800086975098" y2="232.3741537240835" style="visibility: inherit;" fill="rgb(0, 0, 0)" stroke="rgb(204, 204, 204)" stroke-width="1px"></line><line x1="39.98800086975098" y1="203.32738450857303" x2="34.98800086975098" y2="203.32738450857303" style="visibility: inherit;" fill="rgb(0, 0, 0)" stroke="rgb(204, 204, 204)" stroke-width="1px"></line><line x1="39.98800086975098" y1="174.28061529306257" x2="34.98800086975098" y2="174.28061529306257" style="visibility: inherit;" fill="rgb(0, 0, 0)" stroke="rgb(204, 204, 204)" stroke-width="1px"></line><line x1="39.98800086975098" y1="145.23384607755224" x2="34.98800086975098" y2="145.23384607755224" style="visibility: inherit;" fill="rgb(0, 0, 0)" stroke="rgb(204, 204, 204)" stroke-width="1px"></line><line x1="39.98800086975098" y1="116.18707686204178" x2="34.98800086975098" y2="116.18707686204178" style="visibility: inherit;" fill="rgb(0, 0, 0)" stroke="rgb(204, 204, 204)" stroke-width="1px"></line><line x1="39.98800086975098" y1="87.14030764653127" x2="34.98800086975098" y2="87.14030764653127" style="visibility: inherit;" fill="rgb(0, 0, 0)" stroke="rgb(204, 204, 204)" stroke-width="1px"></line><line x1="39.98800086975098" y1="58.093538431020804" x2="34.98800086975098" y2="58.093538431020804" style="visibility: inherit;" fill="rgb(0, 0, 0)" stroke="rgb(204, 204, 204)" stroke-width="1px"></line><line x1="39.98800086975098" y1="29.046769215510338" x2="34.98800086975098" y2="29.046769215510338" style="visibility: inherit;" fill="rgb(0, 0, 0)" stroke="rgb(204, 204, 204)" stroke-width="1px"></line><line x1="39.98800086975098" y1="0" x2="34.98800086975098" y2="0" style="visibility: inherit;" fill="rgb(0, 0, 0)" stroke="rgb(204, 204, 204)" stroke-width="1px"></line></g><g transform="translate(29.988000869750977, 0)"><text style="text-anchor: end; visibility: hidden; font-family: Roboto, sans-serif; font-size: 12px; font-weight: 200;" x="0" y="377.60799980163574" dx="0em" dy="0.3em" fill="rgb(33, 33, 33)" stroke="none" stroke-width="1px">1.5</text><text style="text-anchor: end; visibility: inherit; font-family: Roboto, sans-serif; font-size: 12px; font-weight: 200;" x="0" y="348.5612305861253" dx="0em" dy="0.3em" fill="rgb(33, 33, 33)" stroke="none" stroke-width="1px">1.6</text><text style="text-anchor: end; visibility: inherit; font-family: Roboto, sans-serif; font-size: 12px; font-weight: 200;" x="0" y="319.51446137061487" dx="0em" dy="0.3em" fill="rgb(33, 33, 33)" stroke="none" stroke-width="1px">1.7</text><text style="text-anchor: end; visibility: inherit; font-family: Roboto, sans-serif; font-size: 12px; font-weight: 200;" x="0" y="290.4676921551044" dx="0em" dy="0.3em" fill="rgb(33, 33, 33)" stroke="none" stroke-width="1px">1.8</text><text style="text-anchor: end; visibility: inherit; font-family: Roboto, sans-serif; font-size: 12px; font-weight: 200;" x="0" y="261.420922939594" dx="0em" dy="0.3em" fill="rgb(33, 33, 33)" stroke="none" stroke-width="1px">1.9</text><text style="text-anchor: end; visibility: inherit; font-family: Roboto, sans-serif; font-size: 12px; font-weight: 200;" x="0" y="232.3741537240835" dx="0em" dy="0.3em" fill="rgb(33, 33, 33)" stroke="none" stroke-width="1px">2</text><text style="text-anchor: end; visibility: inherit; font-family: Roboto, sans-serif; font-size: 12px; font-weight: 200;" x="0" y="203.32738450857303" dx="0em" dy="0.3em" fill="rgb(33, 33, 33)" stroke="none" stroke-width="1px">2.1</text><text style="text-anchor: end; visibility: inherit; font-family: Roboto, sans-serif; font-size: 12px; font-weight: 200;" x="0" y="174.28061529306257" dx="0em" dy="0.3em" fill="rgb(33, 33, 33)" stroke="none" stroke-width="1px">2.2</text><text style="text-anchor: end; visibility: inherit; font-family: Roboto, sans-serif; font-size: 12px; font-weight: 200;" x="0" y="145.23384607755224" dx="0em" dy="0.3em" fill="rgb(33, 33, 33)" stroke="none" stroke-width="1px">2.3</text><text style="text-anchor: end; visibility: inherit; font-family: Roboto, sans-serif; font-size: 12px; font-weight: 200;" x="0" y="116.18707686204178" dx="0em" dy="0.3em" fill="rgb(33, 33, 33)" stroke="none" stroke-width="1px">2.4</text><text style="text-anchor: end; visibility: inherit; font-family: Roboto, sans-serif; font-size: 12px; font-weight: 200;" x="0" y="87.14030764653127" dx="0em" dy="0.3em" fill="rgb(33, 33, 33)" stroke="none" stroke-width="1px">2.5</text><text style="text-anchor: end; visibility: inherit; font-family: Roboto, sans-serif; font-size: 12px; font-weight: 200;" x="0" y="58.093538431020804" dx="0em" dy="0.3em" fill="rgb(33, 33, 33)" stroke="none" stroke-width="1px">2.6</text><text style="text-anchor: end; visibility: inherit; font-family: Roboto, sans-serif; font-size: 12px; font-weight: 200;" x="0" y="29.046769215510338" dx="0em" dy="0.3em" fill="rgb(33, 33, 33)" stroke="none" stroke-width="1px">2.7</text><text style="text-anchor: end; visibility: hidden; font-family: Roboto, sans-serif; font-size: 12px; font-weight: 200;" x="0" y="0" dx="0em" dy="0.3em" fill="rgb(33, 33, 33)" stroke="none" stroke-width="1px">2.8</text></g><line x1="39.98800086975098" y1="0" x2="39.98800086975098" y2="377.60799980163574" fill="rgb(0, 0, 0)" stroke="rgb(204, 204, 204)" stroke-width="1px"></line></g></g><g transform="translate(39, 0)" clip-path="url(#clip_0)"><clipPath id="clip_0"><rect width="655" height="377"></rect></clipPath><g><g><g><line x1="0" y1="0" x2="0" y2="377.60799980163574" fill="rgb(0, 0, 0)" stroke="rgb(66, 66, 66)" stroke-width="1px" opacity="0.25"></line><line x1="65.5811999130249" y1="0" x2="65.5811999130249" y2="377.60799980163574" fill="rgb(0, 0, 0)" stroke="rgb(66, 66, 66)" stroke-width="1px" opacity="0.25"></line><line x1="131.1623998260498" y1="0" x2="131.1623998260498" y2="377.60799980163574" fill="rgb(0, 0, 0)" stroke="rgb(66, 66, 66)" stroke-width="1px" opacity="0.25"></line><line x1="196.74359973907468" y1="0" x2="196.74359973907468" y2="377.60799980163574" fill="rgb(0, 0, 0)" stroke="rgb(66, 66, 66)" stroke-width="1px" opacity="0.25"></line><line x1="262.3247996520996" y1="0" x2="262.3247996520996" y2="377.60799980163574" fill="rgb(0, 0, 0)" stroke="rgb(66, 66, 66)" stroke-width="1px" opacity="0.25"></line><line x1="327.9059995651245" y1="0" x2="327.9059995651245" y2="377.60799980163574" fill="rgb(0, 0, 0)" stroke="rgb(66, 66, 66)" stroke-width="1px" opacity="0.25"></line><line x1="393.48719947814936" y1="0" x2="393.48719947814936" y2="377.60799980163574" fill="rgb(0, 0, 0)" stroke="rgb(66, 66, 66)" stroke-width="1px" opacity="0.25"></line><line x1="459.06839939117424" y1="0" x2="459.06839939117424" y2="377.60799980163574" fill="rgb(0, 0, 0)" stroke="rgb(66, 66, 66)" stroke-width="1px" opacity="0.25"></line><line x1="524.6495993041992" y1="0" x2="524.6495993041992" y2="377.60799980163574" fill="rgb(0, 0, 0)" stroke="rgb(66, 66, 66)" stroke-width="1px" opacity="0.25"></line><line x1="590.2307992172241" y1="0" x2="590.2307992172241" y2="377.60799980163574" fill="rgb(0, 0, 0)" stroke="rgb(66, 66, 66)" stroke-width="1px" opacity="0.25"></line><line x1="655.811999130249" y1="0" x2="655.811999130249" y2="377.60799980163574" fill="rgb(0, 0, 0)" stroke="rgb(66, 66, 66)" stroke-width="1px" opacity="0.25"></line></g><g><line x1="0" y1="377.60799980163574" x2="655.811999130249" y2="377.60799980163574" fill="rgb(0, 0, 0)" stroke="rgb(66, 66, 66)" stroke-width="1px" opacity="0.25"></line><line x1="0" y1="348.5612305861253" x2="655.811999130249" y2="348.5612305861253" fill="rgb(0, 0, 0)" stroke="rgb(66, 66, 66)" stroke-width="1px" opacity="0.25"></line><line x1="0" y1="319.51446137061487" x2="655.811999130249" y2="319.51446137061487" fill="rgb(0, 0, 0)" stroke="rgb(66, 66, 66)" stroke-width="1px" opacity="0.25"></line><line x1="0" y1="290.4676921551044" x2="655.811999130249" y2="290.4676921551044" fill="rgb(0, 0, 0)" stroke="rgb(66, 66, 66)" stroke-width="1px" opacity="0.25"></line><line x1="0" y1="261.420922939594" x2="655.811999130249" y2="261.420922939594" fill="rgb(0, 0, 0)" stroke="rgb(66, 66, 66)" stroke-width="1px" opacity="0.25"></line><line x1="0" y1="232.3741537240835" x2="655.811999130249" y2="232.3741537240835" fill="rgb(0, 0, 0)" stroke="rgb(66, 66, 66)" stroke-width="1px" opacity="0.25"></line><line x1="0" y1="203.32738450857303" x2="655.811999130249" y2="203.32738450857303" fill="rgb(0, 0, 0)" stroke="rgb(66, 66, 66)" stroke-width="1px" opacity="0.25"></line><line x1="0" y1="174.28061529306257" x2="655.811999130249" y2="174.28061529306257" fill="rgb(0, 0, 0)" stroke="rgb(66, 66, 66)" stroke-width="1px" opacity="0.25"></line><line x1="0" y1="145.23384607755224" x2="655.811999130249" y2="145.23384607755224" fill="rgb(0, 0, 0)" stroke="rgb(66, 66, 66)" stroke-width="1px" opacity="0.25"></line><line x1="0" y1="116.18707686204178" x2="655.811999130249" y2="116.18707686204178" fill="rgb(0, 0, 0)" stroke="rgb(66, 66, 66)" stroke-width="1px" opacity="0.25"></line><line x1="0" y1="87.14030764653127" x2="655.811999130249" y2="87.14030764653127" fill="rgb(0, 0, 0)" stroke="rgb(66, 66, 66)" stroke-width="1px" opacity="0.25"></line><line x1="0" y1="58.093538431020804" x2="655.811999130249" y2="58.093538431020804" fill="rgb(0, 0, 0)" stroke="rgb(66, 66, 66)" stroke-width="1px" opacity="0.25"></line><line x1="0" y1="29.046769215510338" x2="655.811999130249" y2="29.046769215510338" fill="rgb(0, 0, 0)" stroke="rgb(66, 66, 66)" stroke-width="1px" opacity="0.25"></line><line x1="0" y1="0" x2="655.811999130249" y2="0" fill="rgb(0, 0, 0)" stroke="rgb(66, 66, 66)" stroke-width="1px" opacity="0.25"></line></g></g></g><g><g><line x1="0" y1="813.3095380342925" x2="655.811999130249" y2="813.3095380342925" fill="rgb(0, 0, 0)" stroke="rgb(153, 153, 153)" stroke-width="1.5px"></line></g></g><g><g><line x1="65.5811999130249" y1="0" x2="65.5811999130249" y2="377.60799980163574" fill="rgb(0, 0, 0)" stroke="rgb(153, 153, 153)" stroke-width="1.5px"></line></g></g><g><g><g><g><g><path style="fill: none;" stroke="rgb(255, 112, 67)" stroke-width="2px" d="M65.5811999130249,361.57380789938844L66.89282391128539,-126.38628477121985L68.20444790954589,15.917093455033088L69.51607190780639,13.570422261040754L70.8276959060669,-32.77319015767948L72.1393199043274,89.69595755422894L73.45094390258788,132.09620047534852L74.76256790084838,86.66998869025721L76.07419189910888,151.48202686103355L77.38581589736937,133.9809448564121L78.69743989562987,136.6864758125877L80.00906389389037,204.76314579009994L81.32068789215087,213.88758737439602L82.63231189041137,156.01853370091717L83.94393588867187,179.58757060752347L85.25555988693237,154.17204741822687L86.56718388519288,174.85208247051267L87.87880788345336,223.29834722956983L89.19043188171386,137.72974425225956L90.50205587997436,193.6824126038381L91.81367987823486,165.5913030192682L93.12530387649535,237.55495471359706L94.43692787475585,237.24467481235376L95.74855187301634,292.7667702337185L97.06017587127684,271.2848741672178L98.37179986953734,288.7194121713767L99.68342386779784,279.50378337622766L100.99504786605834,317.00829797128495L102.30667186431884,197.6173269347951L103.61829586257934,234.49512905057972L104.92991986083985,262.8195244592831L106.24154385910033,258.9765988316638L107.55316785736083,279.79289034546173L108.86479185562133,305.43737694827524L110.17641585388184,335.1130322454449L111.48803985214234,363.3224675935912L112.79966385040281,366.76291406557937L114.11128784866331,405.89828416690074L115.42291184692381,309.49316099390796L116.73453584518431,360.420567056856L118.04615984344481,355.8070666880288L119.35778384170531,412.84615395120505L121.98103183822631,426.0839330862261L123.2926558364868,324.25161778440344L124.6042798347473,353.72581775694897L125.9159038330078,365.43723404201654L127.2275278312683,437.62967242300766L128.5391518295288,370.86900324519064L129.8507758277893,418.5361572632777L131.1623998260498,343.0804577324498L132.4740238243103,326.40219525456837L133.78564782257078,298.7937559103964L135.09727182083128,312.77579777631956L136.40889581909178,272.9233873770592L137.72051981735228,331.40921499803875L139.03214381561278,372.00117811370944L140.34376781387328,389.25931936104433L141.6553918121338,342.4021580705686L142.9670158103943,347.2473774958379L144.2786398086548,366.19647122800313L145.5902638069153,375.572829165361L146.90188780517576,379.85576105171805L148.21351180343626,397.6232479255933L149.52513580169676,362.3501788475699L150.83675979995726,361.0543833896992L152.14838379821776,284.996849169988L153.46000779647827,336.4734325661113L154.77163179473874,299.1174003665321L156.08325579299924,344.37892834305836L157.39487979125974,262.0468805158691L158.70650378952024,310.4405366426739L160.01812778778074,289.80539649545653L161.32975178604124,314.97598803689584L162.64137578430174,250.98893360412714L163.95299978256224,304.78352241104847L165.26462378082275,290.161190638591L166.57624777908325,332.22724167006913L167.88787177734375,283.41421209325927L169.19949577560425,362.4698329827916L170.51111977386475,317.85649650595644L171.82274377212525,347.7917119421284L173.13436777038575,304.6264138126119L174.44599176864622,342.49215605249293L175.75761576690672,241.85257013111564L177.06923976516723,266.94769388492466L178.38086376342773,283.6172802324746L179.69248776168823,279.2967578386989L181.00411175994873,282.8966227057602L182.31573575820923,329.51653974048213L183.62735975646973,177.44728040306686L184.9389837547302,237.69166678576488L186.2506077529907,138.62587268508452L187.5622317512512,194.25488648516802L188.8738557495117,208.7916154652705L190.18547974777218,267.1355262594241L191.49710374603268,226.66152256963258L192.80872774429318,206.81916721199164L194.12035174255368,195.0124255214029L195.43197574081418,246.87953293221858L196.74359973907468,349.0777964478499L198.05522373733518,280.35663340443887L199.36684773559568,331.4548446171437L200.67847173385618,311.88352511161077L201.99009573211669,252.87322295326786L203.3017197303772,249.7129344817815L204.6133437286377,219.52673241148798L205.9249677268982,243.61746187915324L207.2365917251587,230.81660576931446L208.5482157234192,250.70237294161475L209.8598397216797,176.9442075300042L211.17146371994016,232.29364106598467L212.48308771820066,299.1700971980245L213.79471171646117,303.6700381842886L215.10633571472167,290.59001054812586L216.41795971298217,252.73654308262633L217.72958371124267,228.924200317645L219.04120770950317,246.44628344258183L220.35283170776367,111.32764930391669L221.66445570602417,204.06789575395936L222.97607970428467,70.35411752171112L224.28770370254517,144.58839277510833L225.59932770080562,176.08182341955867L226.91095169906612,199.00779083708028L228.22257569732662,63.14606630250212L229.53419969558712,144.68130113386906L230.84582369384762,129.76929296349738L232.15744769210812,150.98504772818728L233.46907169036862,157.55417861511623L234.78069568862912,175.14174608828148L236.09231968688962,298.79387549204836L237.40394368515013,273.4049757609417L238.71556768341063,-103.82939308290214L240.02719168167113,53.77350335666306L241.33881567993163,128.2697552294147L242.65043967819213,157.11441076977513L243.96206367645263,171.45704170623338L245.27368767471313,186.0376214944758L246.5853116729736,223.42132098765134L247.8969356712341,247.54016170980915L249.2085596694946,205.36557636684708L250.5201836677551,222.32029870419183L251.8318076660156,139.8521778594461L253.1434316642761,234.29400023032503L254.4550556625366,179.4874740742879L255.7666796607971,219.35926421989666L257.0783036590576,-2.594024544344156L258.3899276573181,94.79508744363643L259.7015516555786,139.40407023934304L261.0131756538391,171.7140405536203L262.3247996520996,136.6652532301421L263.6364236503601,203.68627151550885L264.9480476486206,147.53907550938484L266.2596716468811,161.92858262798018L267.57129564514156,-14.32873055779919L268.8829196434021,100.3890112073487L270.19454364166256,143.50636127414688L271.50616763992304,228.5697686973527L272.81779163818356,242.7804258432814L274.12941563644404,241.62685830490415L275.44103963470457,56.09105545415832L276.75266363296504,115.26128007856818L278.06428763122557,-34.30477920885399L279.37591162948604,48.60166599605947L280.68753562774657,163.48560896146446L281.99915962600704,183.8464821690821L283.3107836242676,174.6935850544399L284.62240762252804,161.88394883265065L285.9340316207886,68.10457540074742L287.24565561904905,113.89555130113831L288.5572796173096,9.557113889798922L289.86890361557005,58.08056999799372L291.1805276138306,-63.35164734933678L292.49215161209105,64.04947306773322L293.8037756103515,70.69209209442516L295.11539960861205,110.94950409924911L296.4270236068725,118.81356524221032L297.73864760513305,201.70597112461525L299.0502716033935,-58.62631478851236L300.36189560165406,71.85462042418796L301.6735195999145,127.86815426260148L302.98514359817506,188.4179358477543L304.29676759643553,161.9710393814195L305.60839159469606,190.1440581105397L306.92001559295653,-11.75282787075089L308.231639591217,78.88394851497526L309.5432635894775,90.6048463143876L310.854887587738,176.02041482839422L312.1665115859985,185.46782241665267L313.478135584259,175.5701553808704L314.7897595825195,-32.17392774099093L316.10138358078,61.92090062122679L317.4130075790405,64.48358851934233L318.724631577301,114.44099677321876L320.0362555755615,161.40694408877349L321.347879573822,174.62082348415115L322.6595035720825,61.1552261380805L323.971127570343,122.8223843119664L325.2827515686035,101.8786716349487L326.594375566864,153.90295660208855L327.9059995651245,-137.52323105245983L329.21762356338496,7.071057131282653L330.5292475616455,73.83548286575108L331.84087155990596,116.66768902753743L333.1524955581665,130.9689558405494L334.46411955642697,182.3327136522761L335.7757435546875,216.68970814164774L337.08736755294797,195.8510890065686L338.3989915512085,126.85173865646155L339.71061554946897,153.46855400646416L341.0222395477295,170.428433284939L342.33386354598997,190.71148838143398L343.6454875442505,146.84647765186318L344.957111542511,166.5454655453684L346.2687355407715,157.39347517833377L347.580359539032,184.84588284252166L348.89198353729245,137.8187391048751L350.203607535553,171.16187705069433L351.51523153381345,162.6352625967759L352.826855532074,174.40193073759633L354.13847953033445,132.5517702121412L355.450103528595,138.2666912346134L356.76172752685545,167.5347297978456L358.073351525116,164.41165244804017L359.38497552337645,156.5959076953311L360.696599521637,180.33635297671546L362.00822351989746,181.59802933557484L363.319847518158,180.9321651817564L364.63147151641846,183.62160279300153L365.943095514679,187.782719231091L367.25471951293946,204.7399751770231L368.5663435112,204.3406029136031L369.8779675094604,184.88939560356977L371.1895915077209,171.775274690504L372.5012155059814,79.96769569097546L373.8128395042419,109.47528183634493L375.1244635025024,184.7168556948796L376.4360875007629,190.84067491429735L377.7477114990234,124.18466317690103L379.0593354972839,223.6528396675106L380.37095949554435,200.5259266925772L381.6825834938049,196.86929003412217L382.99420749206536,184.76039884344257L384.3058314903259,204.1214308333397L385.61745548858636,86.67368830654824L386.9290794868469,123.58425952624513L388.24070348510736,113.03331906859343L389.5523274833679,140.4023766764178L390.86395148162836,192.75548161243933L392.1755754798889,160.28262979966135L393.48719947814936,120.40017394239007L394.7988234764099,146.5476623046329L396.11044747467037,202.13003309455377L397.4220714729309,177.04383554011676L398.73369547119137,215.52848257052693L400.04531946945184,377.6955650102178L401.35694346771237,235.30592348725136L402.66856746597284,224.72080538842363L403.98019146423337,218.97445080336425L405.29181546249384,209.91754141901654L406.6034394607544,159.3058545840661L407.91506345901485,157.10842683649022L409.2266874572754,149.8138886164239L410.53831145553585,192.63455065849885L411.8499354537964,172.87448653906L413.16155945205685,184.24924840332835L414.4731834503174,117.46949770263087L415.78480744857785,141.09929613814572L417.0964314468384,48.33907170009858L418.40805544509885,135.3969472977822L419.7196794433594,131.15538321861553L421.03130344161985,157.0354892015147L422.3429274398803,133.43234329455169L423.65455143814086,146.5603344362943L424.96617543640133,129.44564319720305L426.27779943466186,156.52364017118998L427.58942343292233,180.03138272819982L428.90104743118286,183.61626428677306L430.21267142944333,150.67597597749605L431.52429542770386,182.08634014191284L432.83591942596433,181.138336237091L434.14754342422486,167.31139966783465L435.45916742248534,32.29900619612049L436.77079142074587,102.2878110310855L438.08241541900634,168.8051920716357L439.39403941726687,180.0904492512183L440.70566341552734,126.81413626310034L442.0172874137878,148.01138552996264L443.32891141204834,149.99778024588767L444.6405354103088,150.97332643553224L445.95215940856934,168.29658011427188L447.2637834068298,155.30959171044125L448.57540740509035,136.80018083988713L449.8870314033508,164.88100762401908L451.19865540161123,89.70972020930131L452.51027939987176,144.45236371953706L453.82190339813224,250.70432815989608L455.13352739639276,259.82752173658355L456.44515139465324,221.15305009192642L457.75677539291377,201.15355726669387L459.06839939117424,111.7212584604696L460.38002338943477,123.32215034277934L461.69164738769524,40.36123698729797L463.00327138595577,75.80746707701105L464.31489538421624,93.68535905154613L465.6265193824768,149.66621529127906L466.93814338073724,127.68602648011672L468.2497673789978,162.63565551995706L469.56139137725825,149.51284243724407L470.8730153755188,178.53133490364775L472.18463937377925,186.45777557045113L473.4962633720397,192.15955140509004L474.80788737030025,194.95964005202202L476.1195113685607,183.27870461499793L477.43113536682125,180.09511921841226L478.7427593650817,199.94034925095846L480.05438336334225,178.9298136697552L481.3660073616027,170.39794481358754L482.67763135986326,187.42528971585776L483.9892553581237,172.47984861276427L485.30087935638426,144.27670608355774L486.61250335464473,180.61098891820782L487.92412735290526,161.56758653704168L489.23575135116573,145.8562314028012L490.54737534942626,-20.571547164397092L491.85899934768673,68.5573943864775L493.1706233459472,121.03394418773448L494.48224734420774,149.68934206583927L495.7938713424682,113.7524527084062L497.10549534072874,144.1884670669079L498.4171193389892,146.55010973976235L499.72874333724974,169.71017729992033L501.0403673355102,117.76895925466668L502.35199133377074,160.3803618157182L503.6636153320312,132.33903638832285L504.97523933029174,144.41062076183343L506.2868633285522,181.45287025357715L507.59848732681274,192.4958996813183L508.9101113250732,189.82723097305228L510.22173532333375,196.19983571490297L511.5333593215942,195.3734822158327L512.8449833198547,171.95817539153902L514.1566073181152,166.56083850264153L515.4682313163757,165.66542799510526L516.7798553146362,113.64577387308478L518.0914793128967,148.82894739071315L519.4031033111572,134.9532864726248L520.7147273094178,155.05454101932182L522.0263513076782,148.13030526596145L523.3379753059387,170.06654248324134L524.6495993041992,174.60413876570587L525.9612233024598,184.95806078957511L527.2728473007202,195.19284372214867L528.5844712989807,204.64048378881705L529.8960952972412,161.98171107730747L531.2077192955018,188.85141533419454L532.5193432937622,188.1134268291622L533.8309672920226,197.96720947357895L535.1425912902831,140.9601219331536L536.4542152885437,158.5365355921651L537.7658392868042,90.65190186994349L539.0774632850646,162.7744195626969L540.3890872833251,143.9049811014028L541.7007112815857,151.38173920838764L543.0123352798461,-109.5422063913059L544.3239592781066,13.19370124160371L545.6355832763671,97.6625480506048L546.9472072746277,138.9575127319115L548.2588312728881,150.58198182892988L549.5704552711486,183.68932610699352L550.8820792694091,177.4620675674867L552.1937032676697,189.95138859915247L553.5053272659301,179.90000972257027L554.8169512641906,190.5325368448423L556.1285752624511,210.35505102098307L557.4401992607117,195.5045460052904L558.7518232589721,175.59294979463206L560.0634472572326,183.9072559918022L561.3750712554931,146.87678451531505L562.6866952537537,166.66287521059098L563.9983192520141,178.3761344075969L565.3099432502746,180.8921530484991L566.6215672485351,143.9830008131636L567.9331912467956,137.80501083686536L569.2448152450561,162.65522959712754L570.5564392433166,153.77901379816748L571.8680632415771,114.41041739038087L573.1796872398376,136.762682714096L574.4913112380981,108.44091806409367L575.8029352363586,136.51129940955713L577.1145592346192,80.85760383522206L578.4261832328796,128.3473100667424L579.7378072311401,149.40993811734927L581.0494312294006,169.06155890107883L582.3610552276612,180.41468687151846L583.6726792259216,187.8009194590975L584.9843032241821,-12.79391451487189L586.2959272224426,48.234704144677856L587.607551220703,72.68511132808014L588.9191752189636,85.1961888953171L590.2307992172241,89.83989307841262L591.5424232154846,112.66133806438776L592.854047213745,-36.21508095974783L594.1656712120056,63.67138259219826L595.4772952102661,0.4758249876412918L596.7889192085266,65.6600943769998L598.100543206787,27.69030082180221L599.4121672050476,95.0596819784557L600.7237912033081,138.25649576186177L602.0354152015686,162.33314956878496" fill="none"></path></g></g></g></g><g opacity="0.2"><g><g><g><path style="fill: none;" stroke="rgb(255, 112, 67)" stroke-width="2px" d="M65.5811999130249,361.57380789938844L66.89282391128539,-419.1623403735848L68.20444790954589,152.52833655223588L69.51607190780639,10.810736936905576L70.8276959060669,-93.27941053156043L72.1393199043274,259.1148777329748L73.45094390258788,192.72922625643596L74.76256790084838,20.438135815961143L76.07419189910888,247.06719407263427L77.38581589736937,107.99387772565035L78.69743989562987,140.72023328020543L80.00906389389037,306.5076805246162L81.32068789215087,227.54445686594045L82.63231189041137,69.32832469115249L83.94393588867187,214.91342144929695L85.25555988693237,116.06668763034978L86.56718388519288,205.86338395117536L87.87880788345336,295.9554438667813L89.19043188171386,9.389875301710271L90.50205587997436,277.60630083569004L91.81367987823486,123.45617922562427L93.12530387649535,345.49806426047803L94.43692787475585,236.77926108642396L95.74855187301634,376.04925565361333L97.06017587127684,239.06218275159011L98.37179986953734,314.8711448272742L99.68342386779784,265.68036376377245L100.99504786605834,373.26501228560664L102.30667186431884,18.530980356018475L103.61829586257934,289.811811842456L104.92991986083985,305.3061081796605L106.24154385910033,253.21221115484838L107.55316785736083,311.01732513111165L108.86479185562133,343.9041050156336L110.17641585388184,379.6265139158356L111.48803985214234,405.63661988840033L112.79966385040281,371.9235837203323L114.11128784866331,464.6013389555896L115.42291184692381,164.88547677137498L116.73453584518431,436.8116759810852L118.04615984344481,348.88681614403856L119.35778384170531,498.4047847773471L121.98103183822631,447.0557026322214L123.2926558364868,171.50314485813206L124.6042798347473,397.9371177111718L127.2275278312683,545.9183299904422L128.5391518295288,270.72799948071355L129.8507758277893,490.0368882894452L131.1623998260498,229.89690843712287L132.4740238243103,301.38480153786765L133.78564782257078,257.381096894259L135.09727182083128,333.74886057516755L136.40889581909178,213.1447717782313L137.72051981735228,419.1379564294528L140.34376781387328,415.1465312320409L141.6553918121338,272.11641613486444L142.9670158103943,354.51520663374123L144.2786398086548,394.6201118262495L148.21351180343626,424.27447823640586L149.52513580169676,309.4405752305352L150.83675979995726,359.11069020289324L152.14838379821776,170.91054784042157L153.46000779647827,413.68830766029606L154.77163179473874,243.08335206716336L156.08325579299924,412.2712203078476L157.39487979125974,138.5488087750853L158.70650378952024,383.03102083288087L160.01812778778074,258.8526862746305L161.32975178604124,352.7318753490547L162.64137578430174,155.00835195497407L163.95299978256224,385.47540562143047L165.26462378082275,268.2276929799048L166.57624777908325,395.3263182172865L167.88787177734375,210.19466772804435L169.19949577560425,481.05326431709017L170.51111977386475,250.93649179070377L171.82274377212525,392.6945350963862L173.13436777038575,239.87846661833706L174.44599176864622,399.2907694123145L175.75761576690672,90.89319124904968L177.06923976516723,304.5903795156383L178.38086376342773,308.6216597537996L179.69248776168823,272.8159742480353L181.00411175994873,288.2964200063521L182.31573575820923,399.44641529256506L183.62735975646973,-50.65660860305605L184.9389837547302,328.05824635981185L186.2506077529907,-9.97281846593613L187.5622317512512,277.69840718529326L188.8738557495117,230.59670893542423L190.18547974777218,354.6513924506546L191.49710374603268,165.95051703494514L192.80872774429318,177.0556341755301L194.12035174255368,177.30231298552013L195.43197574081418,324.68019404844205L196.74359973907468,502.37519172129697L198.05522373733518,177.27488883932247L199.36684773559568,408.1021614362009L200.67847173385618,282.5265458533115L201.99009573211669,164.3577697157534L203.3017197303772,244.97250177455206L204.6133437286377,174.24742930604768L205.9249677268982,279.7535560806511L207.2365917251587,211.61532160455636L208.5482157234192,280.5310237000652L209.8598397216797,66.3069594125883L211.17146371994016,315.31779136995544L212.48308771820066,399.48478139608403L213.79471171646117,310.41994966368486L215.10633571472167,270.96996909388173L216.41795971298217,195.95634188437705L217.72958371124267,193.20568617017307L219.04120770950317,272.72940812998706L220.35283170776367,-91.35030190408077L221.66445570602417,343.1782654290234L222.97607970428467,-130.2165498266615L224.28770370254517,255.9398056552043L225.59932770080562,223.32196938623434L226.91095169906612,233.39674196336284L228.22257569732662,-140.64652049936515L229.53419969558712,266.9841533809194L230.84582369384762,107.40128070793986L232.15744769210812,182.80867987522208L233.46907169036862,167.40787494550958L234.78069568862912,201.52309729802937L236.09231968688962,484.27206959769853L237.40394368515013,235.3216261642818L238.71556768341063,-669.6809463486677L240.02719168167113,290.17784801601084L241.33881567993163,240.01413303854216L242.65043967819213,200.38139408031577L243.96206367645263,192.97098811092084L245.27368767471313,207.90849117683962L246.5853116729736,279.49687022741466L247.8969356712341,283.7184227930458L249.2085596694946,142.10369835240394L250.5201836677551,247.75238221020905L251.8318076660156,16.14999659232738L253.1434316642761,375.95673378664344L254.4550556625366,97.27768484023218L255.7666796607971,279.16694943830953L257.0783036590576,-335.52395769070546L258.3899276573181,240.87875542560718L259.7015516555786,206.31754443290325L261.0131756538391,220.17899602503613L262.3247996520996,84.09207224492494L263.6364236503601,304.217798943559L264.9480476486206,63.3182815001991L266.2596716468811,183.51284330587305L267.57129564514156,-278.7147003364682L268.8829196434021,272.4656238550707L270.19454364166256,208.182386374344L271.50616763992304,356.1648798321615L272.81779163818356,264.09641156217435L274.12941563644404,239.8965069973383L275.44103963470457,-222.2126488219603L276.75266363296504,204.01661701518313L278.06428763122557,-258.653868139987L279.37591162948604,172.96133380342974L280.68753562774657,335.8115234095719L281.99915962600704,214.38779198050847L283.3107836242676,160.96423938247653L284.62240762252804,142.66949449996673L285.9340316207886,-72.56448474710729L287.24565561904905,182.5820151517248L288.5572796173096,-146.95054222721015L289.86890361557005,130.8657541602859L291.1805276138306,-245.49997337033264L292.49215161209105,255.15115369333833L293.8037756103515,80.65602063446285L295.11539960861205,171.33562210648523L296.4270236068725,130.60965695665223L297.73864760513305,326.04457994822275L299.0502716033935,-449.1247436582036L300.36189560165406,267.5760232432383L301.6735195999145,211.88845502022195L302.98514359817506,279.2426082254836L304.29676759643553,122.30069468191738L305.60839159469606,232.40358620421992L306.92001559295653,-314.59815684268705L308.231639591217,214.83911309356438L309.5432635894775,108.18619301350616L310.854887587738,304.1437675994042L312.1665115859985,199.6389337990403L313.478135584259,160.7236548271971L314.7897595825195,-343.79005242378287L316.10138358078,203.06314316455342L317.4130075790405,68.32762036651573L318.724631577301,189.37710915403335L320.0362555755615,231.85586506210555L321.347879573822,194.44164257721746L322.6595035720825,-109.04316988102526L323.971127570343,215.32312157279526L325.2827515686035,70.46310261942224L326.594375566864,231.93938405279843L327.9059995651245,-574.6625125342824L329.21762356338496,223.96248940689637L330.5292475616455,173.98212146745365L331.84087155990596,180.91599827021705L333.1524955581665,152.42085606006728L334.46411955642697,259.3783503698662L335.7757435546875,268.2251998757051L337.08736755294797,164.59316030394996L338.3989915512085,23.352713131301105L339.71061554946897,193.3937770314681L341.0222395477295,195.8682522026512L342.33386354598997,221.13607102617658L343.6454875442505,81.04896155750704L344.957111542511,196.09394738562636L346.2687355407715,143.66548962778168L347.580359539032,226.02449433880358L348.89198353729245,67.27802349840533L350.203607535553,221.17658396942312L351.51523153381345,149.84534091589836L352.826855532074,192.05193294882713L354.13847953033445,69.77652942395865L355.450103528595,146.83907276832176L356.76172752685545,211.43678764269387L358.073351525116,159.7270364233322L359.38497552337645,144.8722905662675L360.696599521637,215.94702089879198L362.00822351989746,183.49054387386383L363.319847518158,179.93336895102877L364.63147151641846,187.65575920986925L365.943095514679,194.02439388822535L367.25471951293946,230.17585909592123L368.5663435112,203.74154451847326L369.8779675094604,155.71258463851947L371.1895915077209,152.10409332090543L372.5012155059814,-57.74367280831746L373.8128395042419,153.73666105439938L375.1244635025024,297.5792164826815L376.4360875007629,200.02640374342386L377.7477114990234,24.200645570806508L379.0593354972839,372.855104403425L380.37095949554435,165.8355572301772L381.6825834938049,191.3843350464397L382.99420749206536,166.59706205742324L384.3058314903259,233.16297881818562L385.61745548858636,-89.49792548363892L386.9290794868469,178.95011635579053L388.24070348510736,97.20690838211603L389.5523274833679,181.45596308815428L390.86395148162836,271.28513901647153L392.1755754798889,111.57335208049463L393.48719947814936,60.57649015648324L394.7988234764099,185.76889484799707L396.11044747467037,285.503589279435L397.4220714729309,139.41453920846138L398.73369547119137,273.2554531161421L400.04531946945184,620.9461886697541L401.35694346771237,21.721461202801553L402.66856746597284,208.843128240182L403.98019146423337,210.3549189257751L405.29181546249384,196.33217734249493L406.6034394607544,83.38832433164059L407.91506345901485,153.81228521512625L409.2266874572754,138.87208128632437L410.53831145553585,256.86554372161135L411.8499354537964,143.23439035990182L413.16155945205685,201.3113911997308L414.4731834503174,17.299871651584716L415.78480744857785,176.54399379141822L417.0964314468384,-90.80126495697205L418.40805544509885,265.98376069430765L419.7196794433594,124.79303709986567L421.03130344161985,195.8556481758634L422.3429274398803,98.02762443410703L423.65455143814086,166.25232114890827L424.96617543640133,103.77360633856632L426.27779943466186,197.14063563217033L427.58942343292233,215.2929965637145L428.90104743118286,188.99358662463277L430.21267142944333,101.26554351358052L431.52429542770386,229.2018863885378L432.83591942596433,179.7163303798584L434.14754342422486,146.57099481395022L435.45916742248534,-170.21958401145062L436.77079142074587,207.27101828353292L438.08241541900634,268.5812636324608L439.39403941726687,197.01833502059188L440.70566341552734,46.89966678092349L442.0172874137878,179.80725943025618L443.32891141204834,152.9773723197753L444.6405354103088,152.43664571999923L445.95215940856934,194.28146063238117L447.2637834068298,135.82910910469536L448.57540740509035,109.0360645340558L449.8870314033508,207.002247800217L451.19865540161123,-23.047210912775068L452.51027939987176,226.5663289848906L453.82190339813224,410.0822748204346L455.13352739639276,273.51231210161467L456.44515139465324,163.1413426249406L457.75677539291377,171.15431802884515L459.06839939117424,-22.427189748866915L460.38002338943477,140.72348816624404L461.69164738769524,-84.08013304592389L463.00327138595577,128.97681221158055L464.31489538421624,120.50219701334876L465.6265193824768,233.6374996508784L466.93814338073724,94.7157432633732L468.2497673789978,215.06009907971773L469.56139137725825,129.82862281317446L470.8730153755188,222.05907360325332L472.18463937377925,198.34743657065616L473.4962633720397,200.71221515704863L474.80788737030025,199.15977302242007L476.1195113685607,165.75730145946167L477.43113536682125,175.31974112353387L478.7427593650817,229.70819429977786L480.05438336334225,147.41401029795043L481.3660073616027,157.60014152933607L482.67763135986326,212.96630706926322L483.9892553581237,150.06168695812428L485.30087935638426,101.97199228974796L486.61250335464473,235.11241317018298L487.92412735290526,133.00248296529233L489.23575135116573,122.28919870144061L490.54737534942626,-270.2132150151943L491.85899934768673,202.25080671278945L493.1706233459472,199.7487688896198L494.48224734420774,192.67243888299637L495.7938713424682,59.84711867225664L497.10549534072874,189.84248860466025L498.4171193389892,150.09257374904388L499.72874333724974,204.4502786401572L501.0403673355102,39.85713218678606L502.35199133377074,224.2974656572955L503.6636153320312,90.27704824723006L504.97523933029174,162.5179973220994L506.2868633285522,237.0162444911926L507.59848732681274,209.06044382293013L508.9101113250732,185.82422791065343L510.22173532333375,205.75874282767876L511.5333593215942,194.1339519672271L512.8449833198547,136.83521515509833L514.1566073181152,158.46483316929556L515.4682313163757,164.32231223380086L516.7798553146362,35.616292690053804L518.0914793128967,201.60370766715582L519.4031033111572,114.13979509549215L520.7147273094178,185.20642283936732L522.0263513076782,137.7439516359207L523.3379753059387,202.9708983091613L524.6495993041992,181.4105331894026L525.9612233024598,200.4889438253788L527.2728473007202,210.5450181210089L528.5844712989807,218.81194388881957L529.8960952972412,97.99355201004327L531.2077192955018,229.15597171952504L532.5193432937622,187.00644407161357L533.8309672920226,212.74788344020408L535.1425912902831,55.44949062251555L536.4542152885437,184.90115608068228L537.7658392868042,-11.175048713389L539.0774632850646,270.95819610182724L540.3890872833251,115.60082340946181L541.7007112815857,162.59687636886488L543.0123352798461,-500.92812479084625L544.3239592781066,197.29756269096802L545.6355832763671,224.36581826410637L546.9472072746277,200.89995975387149L548.2588312728881,168.0186854744574L549.5704552711486,233.35034252408903L550.8820792694091,168.12117975822645L552.1937032676697,208.68537014665102L553.5053272659301,164.822941407697L554.8169512641906,206.4813275282504L556.1285752624511,240.0888222851941L557.4401992607117,173.22878848175137L558.7518232589721,145.72555547864462L560.0634472572326,196.3787152875576L561.3750712554931,91.3310773005845L562.6866952537537,196.3420112535052L563.9983192520141,195.94602320310565L565.3099432502746,184.66618100985235L566.6215672485351,88.61927246016053L567.9331912467956,128.53802587241805L569.2448152450561,199.93055773752096L570.5564392433166,140.46469009972725L571.8680632415771,55.357522778701174L573.1796872398376,170.2910806996689L574.4913112380981,65.95827108909029L575.8029352363586,178.6168714277523L577.1145592346192,-2.622939526280477L578.4261832328796,199.58186941402295L579.7378072311401,181.00388019325956L581.0494312294006,198.53899007667314L582.3610552276612,197.4443788271777L583.6726792259216,198.8802683404662L584.9843032241821,-313.68616547582604L586.2959272224426,139.7776321340026L587.607551220703,109.36072210318359L588.9191752189636,103.9628052461724L590.2307992172241,96.80544935305585L591.5424232154846,146.89350554335044L592.854047213745,-259.5297094959511L594.1656712120056,213.50107792011755L595.4772952102661,-94.31751141919398L596.7889192085266,163.43649846103762L598.100543206787,-29.264389510994164L599.4121672050476,196.11375371343578L600.7237912033081,203.05171643697102L602.0354152015686,198.44813027916976" fill="none"></path></g></g></g></g></g><g><g><span fill="rgb(0, 0, 0)" stroke="none" stroke-width="1px">Alt + Scroll to Zoom</span></g></g></g><g transform="translate(39, 377)" clip-path="url(#clip_1)"><clipPath id="clip_1"><rect width="655" height="22"></rect></clipPath><g><g><line x1="0" y1="0" x2="0" y2="5" style="visibility: inherit;" fill="rgb(0, 0, 0)" stroke="rgb(204, 204, 204)" stroke-width="1px"></line><line x1="65.5811999130249" y1="0" x2="65.5811999130249" y2="5" style="visibility: inherit;" fill="rgb(0, 0, 0)" stroke="rgb(204, 204, 204)" stroke-width="1px"></line><line x1="131.1623998260498" y1="0" x2="131.1623998260498" y2="5" style="visibility: inherit;" fill="rgb(0, 0, 0)" stroke="rgb(204, 204, 204)" stroke-width="1px"></line><line x1="196.74359973907468" y1="0" x2="196.74359973907468" y2="5" style="visibility: inherit;" fill="rgb(0, 0, 0)" stroke="rgb(204, 204, 204)" stroke-width="1px"></line><line x1="262.3247996520996" y1="0" x2="262.3247996520996" y2="5" style="visibility: inherit;" fill="rgb(0, 0, 0)" stroke="rgb(204, 204, 204)" stroke-width="1px"></line><line x1="327.9059995651245" y1="0" x2="327.9059995651245" y2="5" style="visibility: inherit;" fill="rgb(0, 0, 0)" stroke="rgb(204, 204, 204)" stroke-width="1px"></line><line x1="393.48719947814936" y1="0" x2="393.48719947814936" y2="5" style="visibility: inherit;" fill="rgb(0, 0, 0)" stroke="rgb(204, 204, 204)" stroke-width="1px"></line><line x1="459.06839939117424" y1="0" x2="459.06839939117424" y2="5" style="visibility: inherit;" fill="rgb(0, 0, 0)" stroke="rgb(204, 204, 204)" stroke-width="1px"></line><line x1="524.6495993041992" y1="0" x2="524.6495993041992" y2="5" style="visibility: inherit;" fill="rgb(0, 0, 0)" stroke="rgb(204, 204, 204)" stroke-width="1px"></line><line x1="590.2307992172241" y1="0" x2="590.2307992172241" y2="5" style="visibility: inherit;" fill="rgb(0, 0, 0)" stroke="rgb(204, 204, 204)" stroke-width="1px"></line><line x1="655.811999130249" y1="0" x2="655.811999130249" y2="5" style="visibility: inherit;" fill="rgb(0, 0, 0)" stroke="rgb(204, 204, 204)" stroke-width="1px"></line></g><g transform="translate(0, 8)"><text style="text-anchor: middle; visibility: hidden; font-family: Roboto, sans-serif; font-size: 12px; font-weight: 200;" x="0" y="0" dx="0em" dy="0.95em" fill="rgb(33, 33, 33)" stroke="none" stroke-width="1px">-5k</text><text style="text-anchor: middle; visibility: inherit; font-family: Roboto, sans-serif; font-size: 12px; font-weight: 200;" x="65.5811999130249" y="0" dx="0em" dy="0.95em" fill="rgb(33, 33, 33)" stroke="none" stroke-width="1px">0</text><text style="text-anchor: middle; visibility: inherit; font-family: Roboto, sans-serif; font-size: 12px; font-weight: 200;" x="131.1623998260498" y="0" dx="0em" dy="0.95em" fill="rgb(33, 33, 33)" stroke="none" stroke-width="1px">5k</text><text style="text-anchor: middle; visibility: inherit; font-family: Roboto, sans-serif; font-size: 12px; font-weight: 200;" x="196.74359973907468" y="0" dx="0em" dy="0.95em" fill="rgb(33, 33, 33)" stroke="none" stroke-width="1px">10k</text><text style="text-anchor: middle; visibility: inherit; font-family: Roboto, sans-serif; font-size: 12px; font-weight: 200;" x="262.3247996520996" y="0" dx="0em" dy="0.95em" fill="rgb(33, 33, 33)" stroke="none" stroke-width="1px">15k</text><text style="text-anchor: middle; visibility: inherit; font-family: Roboto, sans-serif; font-size: 12px; font-weight: 200;" x="327.9059995651245" y="0" dx="0em" dy="0.95em" fill="rgb(33, 33, 33)" stroke="none" stroke-width="1px">20k</text><text style="text-anchor: middle; visibility: inherit; font-family: Roboto, sans-serif; font-size: 12px; font-weight: 200;" x="393.48719947814936" y="0" dx="0em" dy="0.95em" fill="rgb(33, 33, 33)" stroke="none" stroke-width="1px">25k</text><text style="text-anchor: middle; visibility: inherit; font-family: Roboto, sans-serif; font-size: 12px; font-weight: 200;" x="459.06839939117424" y="0" dx="0em" dy="0.95em" fill="rgb(33, 33, 33)" stroke="none" stroke-width="1px">30k</text><text style="text-anchor: middle; visibility: inherit; font-family: Roboto, sans-serif; font-size: 12px; font-weight: 200;" x="524.6495993041992" y="0" dx="0em" dy="0.95em" fill="rgb(33, 33, 33)" stroke="none" stroke-width="1px">35k</text><text style="text-anchor: middle; visibility: inherit; font-family: Roboto, sans-serif; font-size: 12px; font-weight: 200;" x="590.2307992172241" y="0" dx="0em" dy="0.95em" fill="rgb(33, 33, 33)" stroke="none" stroke-width="1px">40k</text><text style="text-anchor: middle; visibility: hidden; font-family: Roboto, sans-serif; font-size: 12px; font-weight: 200;" x="655.811999130249" y="0" dx="0em" dy="0.95em" fill="rgb(33, 33, 33)" stroke="none" stroke-width="1px">45k</text></g><line x1="0" y1="0" x2="655.811999130249" y2="0" fill="rgb(0, 0, 0)" stroke="rgb(204, 204, 204)" stroke-width="1px"></line></g></g></g></g></svg>